<svg xmlns="http://www.w3.org/2000/svg" xmlns:xlink="http://www.w3.org/1999/xlink" viewBox="0 0 1170 700" width="1170" height="700">
    <linearGradient id="svg-gradient-circle-chart" x1="-124.2" x2="-124.2" y1="31.3" y2="30.3" gradientTransform="matrix(0 -26.42 -26.42 0 855.9 -2661.5)" gradientUnits="userSpaceOnUse">
        <stop offset="0" stop-color="#ed616f"/>
        <stop offset="1" stop-color="#ef7171" stop-opacity=".8"/>
    </linearGradient>
    <linearGradient id="c" x1="-124.2" x2="-124.2" y1="31.3" y2="30.3" gradientTransform="matrix(0 -26.42 -26.42 0 1127.8 -2773.5)" xlink:href="#svg-gradient-circle-chart"/>
    <linearGradient id="d" x1="-124.2" x2="-124.2" y1="31.3" y2="30.3" gradientTransform="matrix(0 -26.42 -26.42 0 1399.8 -2873.5)" xlink:href="#svg-gradient-circle-chart"/>
    <linearGradient id="e" x1="-124.2" x2="-124.2" y1="31.3" y2="30.3" gradientTransform="rotate(-90 -628.796 -2298.54) scale(26.42)" xlink:href="#svg-gradient-circle-chart"/>
    <linearGradient id="f" x1="-124.2" x2="-124.2" y1="31.3" y2="30.3" gradientTransform="matrix(0 -26.42 -26.42 0 1936.8 -3008.5)" xlink:href="#svg-gradient-circle-chart"/>
    <path class="uk-text-muted" fill="none" stroke="#f0f0f0" d="M41.6 621.3V.1M313.5 621.3V.1M583.3 621.3V.1M854.2 621.3V.1" opacity=".3" style="isolation:isolate"/>
    <path class="uk-text-primary" fill="none" stroke="#6852ed" stroke-linecap="round" stroke-width="5" d="M41 620s23.5-38.6 155.6-91c64.8-27.5 187.7-15.4 256.3-47.1 153-76 165.7-112.5 288.8-123.8 136.1-13.1 211.7 19 315.4-36.2 76.6-43.8 77.6-62.9 103.5-112"/>
    <path fill="#151515" d="M1091.7 699.7a1.6 1.6 0 0 1-1.2-.4 1.5 1.5 0 0 1-.4-1.2 5 5 0 0 1 .9-3 10.7 10.7 0 0 1 2.3-2.4c.9-.7 2-1.5 3.5-2.4l3-2a9 9 0 0 0 1.8-1.8 3.4 3.4 0 0 0 .8-2.1 3.5 3.5 0 0 0-1.2-2.8 5.5 5.5 0 0 0-3.7-1 12.7 12.7 0 0 0-5.2 1 1.3 1.3 0 0 1-.6.2 1 1 0 0 1-.8-.3 1.2 1.2 0 0 1-.4-.9 1.2 1.2 0 0 1 .7-1.1 15.1 15.1 0 0 1 6.8-1.6 8 8 0 0 1 3.6.8 6.4 6.4 0 0 1 2.5 2.2 6 6 0 0 1 0 6.6 12.4 12.4 0 0 1-2.6 2.8l-3.8 2.7a49 49 0 0 0-3.3 2.3 5.4 5.4 0 0 0-1.5 1.8h10.7a1.3 1.3 0 0 1 1 .4 1.2 1.2 0 0 1 .3 1 1.2 1.2 0 0 1-.4.8 1.3 1.3 0 0 1-1 .4zm25.3.3a7.2 7.2 0 0 1-6.2-3 16.3 16.3 0 0 1 0-16.1 8 8 0 0 1 12.4 0 16.2 16.2 0 0 1 0 16.1 7.2 7.2 0 0 1-6.2 3zm0-2.6a4.6 4.6 0 0 0 4.1-2.2 14.1 14.1 0 0 0 0-12.4 4.9 4.9 0 0 0-8.2 0 14.2 14.2 0 0 0 0 12.4 4.6 4.6 0 0 0 4.1 2.2zm15 2.3a1.2 1.2 0 0 1-.8-.4 1.3 1.3 0 0 1-.4-.9 1.3 1.3 0 0 1 .4-1 1.2 1.2 0 0 1 .9-.3h3.7v-15.6l-3.2 1.5a1.8 1.8 0 0 1-.7.2 1.3 1.3 0 0 1-1.3-1.3 1.3 1.3 0 0 1 .8-1.3l4.2-2.2a2 2 0 0 1 .8-.2h.7a1.5 1.5 0 0 1 1.5 1.5v17.4h3a1.3 1.3 0 0 1 1.3 1.3 1.2 1.2 0 0 1-.4 1 1.3 1.3 0 0 1-1 .3zm23.6.3a10.8 10.8 0 0 1-4.7-.9 6.3 6.3 0 0 1-2.7-2.2 5.5 5.5 0 0 1-.8-2.9q0-4.3 4.6-5.8a5.6 5.6 0 0 1-2.6-1.7 4.4 4.4 0 0 1-1-3 5.3 5.3 0 0 1 .7-2.6 5.4 5.4 0 0 1 2.4-2.2 10.6 10.6 0 0 1 8.2 0 5.5 5.5 0 0 1 2.4 2.2 5.2 5.2 0 0 1 .7 2.6 4.5 4.5 0 0 1-1 3 5.6 5.6 0 0 1-2.6 1.7q4.6 1.5 4.6 5.8a5.4 5.4 0 0 1-.8 2.9 6.2 6.2 0 0 1-2.7 2.2 10.8 10.8 0 0 1-4.7.9zm0-13a4.7 4.7 0 0 0 3.3-1 3.1 3.1 0 0 0 1.1-2.3 3 3 0 0 0-1.1-2.4 6.2 6.2 0 0 0-6.6 0 3 3 0 0 0-1 2.4 3 3 0 0 0 1 2.3 4.7 4.7 0 0 0 3.3 1zm0 10.5a6.7 6.7 0 0 0 3.1-.6 4.3 4.3 0 0 0 1.8-1.5 3.3 3.3 0 0 0 .5-1.7 3.5 3.5 0 0 0-1.5-3 7.3 7.3 0 0 0-7.7 0 3.5 3.5 0 0 0-1.6 3 3.2 3.2 0 0 0 .5 1.7 4.2 4.2 0 0 0 1.8 1.5 6.7 6.7 0 0 0 3.1.6z"/>
    <path class="uk-svg-muted-background" fill="#f0f0f0" d="M920.4 689.7h135.4a1 1 0 0 1 1 1 1 1 0 0 1-1 1H920.4a1 1 0 0 1-1-1 1 1 0 0 1 1-1z" opacity=".6" style="isolation:isolate"/>
    <path fill="#151515" d="M2 699.7a1.6 1.6 0 0 1-1.2-.4 1.5 1.5 0 0 1-.4-1.2 5 5 0 0 1 .9-3 10.7 10.7 0 0 1 2.3-2.4c.9-.7 2-1.5 3.5-2.4l3-2a9 9 0 0 0 1.8-1.8 3.4 3.4 0 0 0 .8-2.1 3.5 3.5 0 0 0-1.2-2.8 5.5 5.5 0 0 0-3.7-1 12.7 12.7 0 0 0-5.2 1 1.3 1.3 0 0 1-.6.2 1 1 0 0 1-.8-.3 1.2 1.2 0 0 1-.4-.9 1.2 1.2 0 0 1 .7-1.1 15.1 15.1 0 0 1 6.8-1.6 8 8 0 0 1 3.6.8 6.3 6.3 0 0 1 2.5 2.2 6 6 0 0 1 0 6.6 12.2 12.2 0 0 1-2.6 2.8L7.9 693a30 30 0 0 0-3.2 2.3 5.3 5.3 0 0 0-1.5 1.8h10.7a1.3 1.3 0 0 1 1 .4 1.2 1.2 0 0 1 .3 1 1.2 1.2 0 0 1-.4.8 1.3 1.3 0 0 1-1 .4zm25.3.3a7.2 7.2 0 0 1-6.2-3 16.3 16.3 0 0 1 0-16.1 7.2 7.2 0 0 1 6.2-3 7.2 7.2 0 0 1 6.2 3 16.2 16.2 0 0 1 0 16.1 7.2 7.2 0 0 1-6.2 3zm0-2.6a4.6 4.6 0 0 0 4.1-2.2 14.1 14.1 0 0 0 0-12.4 4.6 4.6 0 0 0-4-2.3 4.6 4.6 0 0 0-4.2 2.3 14.2 14.2 0 0 0 0 12.4 4.6 4.6 0 0 0 4.1 2.2zm15.1 2.3a1.3 1.3 0 0 1-1.3-1.3 1.3 1.3 0 0 1 .4-1 1.2 1.2 0 0 1 1-.3H46v-15.6l-3 1.5a1.7 1.7 0 0 1-.8.2 1.3 1.3 0 0 1-1.3-1.3 1.3 1.3 0 0 1 .8-1.3l4.2-2.2a2 2 0 0 1 .8-.2h.7a1.5 1.5 0 0 1 1 .4 1.4 1.4 0 0 1 .4 1V697h3a1.3 1.3 0 0 1 1.3 1.4 1.2 1.2 0 0 1-.4.9 1.3 1.3 0 0 1-1 .4zm27.2.1a1.3 1.3 0 0 1-1-.4 1.4 1.4 0 0 1-.4-1v-4.1h-9.4a1.8 1.8 0 0 1-1.3-.5 1.7 1.7 0 0 1-.5-1.3v-.3a1.7 1.7 0 0 1 .4-1l9.6-12.4a1.7 1.7 0 0 1 .7-.5 2 2 0 0 1 .8-.2h.6a1.7 1.7 0 0 1 1.3.5 1.8 1.8 0 0 1 .5 1.3v11.9h2.4a1.3 1.3 0 0 1 .9.4 1.2 1.2 0 0 1 .3.8 1.2 1.2 0 0 1-.3 1 1.2 1.2 0 0 1-1 .3H71v4.2a1.3 1.3 0 0 1-.4 1 1.4 1.4 0 0 1-1 .4zm-9.6-8h8.2v-10.5zM274.4 699.7a1.6 1.6 0 0 1-1.2-.4 1.5 1.5 0 0 1-.4-1.2 5.1 5.1 0 0 1 .9-3 11 11 0 0 1 2.3-2.4c.9-.7 2-1.5 3.5-2.4l3-2a9.4 9.4 0 0 0 1.8-1.8 3.4 3.4 0 0 0 .8-2.1 3.5 3.5 0 0 0-1.2-2.8 5.5 5.5 0 0 0-3.7-1 12.7 12.7 0 0 0-5.2 1 1.3 1.3 0 0 1-.6.2 1 1 0 0 1-.8-.3 1.2 1.2 0 0 1-.4-.9 1.2 1.2 0 0 1 .7-1.1 15 15 0 0 1 6.8-1.6 8 8 0 0 1 3.6.8 6.3 6.3 0 0 1 2.5 2.2 5.7 5.7 0 0 1 1 3.3 5.8 5.8 0 0 1-1 3.3 12.3 12.3 0 0 1-2.6 2.8l-3.9 2.7c-1.6 1-2.5 1.7-3.2 2.3a5.2 5.2 0 0 0-1.5 1.8h10.7a1.3 1.3 0 0 1 1.3 1.3 1.2 1.2 0 0 1-.4 1 1.3 1.3 0 0 1-1 .3zm25.3.3a7.2 7.2 0 0 1-6.2-3 16.3 16.3 0 0 1 0-16.1 8 8 0 0 1 12.4 0 16.2 16.2 0 0 1 0 16.1 7.2 7.2 0 0 1-6.2 3zm0-2.6a4.6 4.6 0 0 0 4.1-2.2 14.1 14.1 0 0 0 0-12.4 4.9 4.9 0 0 0-8.2 0 14.2 14.2 0 0 0 0 12.4 4.6 4.6 0 0 0 4.1 2.2zm15.1 2.3a1.3 1.3 0 0 1-1.3-1.3 1.3 1.3 0 0 1 .4-1 1.2 1.2 0 0 1 1-.3h3.6v-15.6l-3.2 1.5a1.7 1.7 0 0 1-.7.2 1.3 1.3 0 0 1-1-.4 1.4 1.4 0 0 1 .5-2.2l4.2-2.2a2 2 0 0 1 .9-.2h.6a1.5 1.5 0 0 1 1.5 1.5V697h3a1.2 1.2 0 0 1 1 .4 1.3 1.3 0 0 1 .3 1 1.2 1.2 0 0 1-.3.9 1.3 1.3 0 0 1-1 .4zm23 .3a12 12 0 0 1-6.5-1.8 1.6 1.6 0 0 1-.5-.4 1.2 1.2 0 0 1-.2-.7 1.4 1.4 0 0 1 .4-1 1.1 1.1 0 0 1 .9-.3 1.4 1.4 0 0 1 .6.1 10.3 10.3 0 0 0 5 1.3 8.2 8.2 0 0 0 4.4-1 3.7 3.7 0 0 0 1.5-3.3 3.7 3.7 0 0 0-1.2-3 5.1 5.1 0 0 0-3.5-1.1 9 9 0 0 0-4.8 1.3l-.3.2a1.4 1.4 0 0 1-.7.2 2.2 2.2 0 0 1-1.5-.5 1.6 1.6 0 0 1-.6-1.3 4.5 4.5 0 0 1 .1-.8l1.4-8.1a1.8 1.8 0 0 1 .5-1.2 1.6 1.6 0 0 1 1.1-.4h9.9a1.3 1.3 0 0 1 1.3 1.3 1.2 1.2 0 0 1-.4 1 1.3 1.3 0 0 1-1 .3H335l-1 6.6a10.6 10.6 0 0 1 5.2-1.3 7.9 7.9 0 0 1 3.9.9 5.9 5.9 0 0 1 2.4 2.5 7.5 7.5 0 0 1 .9 3.6 6.4 6.4 0 0 1-2.2 5c-1.4 1.2-3.5 1.9-6.3 1.9zM546.8 699.7a1.6 1.6 0 0 1-1.6-1.6 5.1 5.1 0 0 1 1-3 10.7 10.7 0 0 1 2.2-2.4 52.7 52.7 0 0 1 6.5-4.4 9 9 0 0 0 1.9-1.8 3.4 3.4 0 0 0 .7-2.1 3.5 3.5 0 0 0-1.1-2.8 5.5 5.5 0 0 0-3.7-1 12.7 12.7 0 0 0-5.3 1 1.3 1.3 0 0 1-.6.2 1 1 0 0 1-.8-.3 1.2 1.2 0 0 1-.4-.9 1.2 1.2 0 0 1 .7-1.1 15 15 0 0 1 6.8-1.6 8.1 8.1 0 0 1 3.6.8 6.4 6.4 0 0 1 2.6 2.2 6 6 0 0 1-.1 6.6 12.4 12.4 0 0 1-2.6 2.8l-3.8 2.7a49 49 0 0 0-3.3 2.3 5.4 5.4 0 0 0-1.5 1.8h10.7a1.3 1.3 0 0 1 1 .4 1.2 1.2 0 0 1 .3 1 1.2 1.2 0 0 1-.4.8 1.3 1.3 0 0 1-.9.4zm25.4.3a7.2 7.2 0 0 1-6.2-3 16.2 16.2 0 0 1 0-16.1 8 8 0 0 1 12.3 0 16.2 16.2 0 0 1 0 16.1 7.2 7.2 0 0 1-6.1 3zm0-2.6a4.6 4.6 0 0 0 4-2.2 14.1 14.1 0 0 0 0-12.4 4.9 4.9 0 0 0-8.1 0 14.1 14.1 0 0 0 0 12.4 4.6 4.6 0 0 0 4 2.2zm15 2.3a1.2 1.2 0 0 1-.9-.4 1.3 1.3 0 0 1-.3-.9 1.3 1.3 0 0 1 .3-1 1.2 1.2 0 0 1 1-.3h3.6v-15.6l-3.1 1.5a1.8 1.8 0 0 1-.7.2 1.3 1.3 0 0 1-1.4-1.3 1.3 1.3 0 0 1 .8-1.3l4.2-2.2a2 2 0 0 1 .9-.2h.6a1.5 1.5 0 0 1 1.5 1.5V697h3a1.3 1.3 0 0 1 1.3 1.4 1.2 1.2 0 0 1-.4.9 1.3 1.3 0 0 1-.9.4zm24.2.3q-8.5 0-8.5-11a15.9 15.9 0 0 1 .9-5.2 9.5 9.5 0 0 1 2.9-4.2 7.8 7.8 0 0 1 5.1-1.7 11 11 0 0 1 3 .4 12.6 12.6 0 0 1 2.5 1 1.3 1.3 0 0 1 .4.5 1.3 1.3 0 0 1 .2.6 1.2 1.2 0 0 1-.3.9 1.2 1.2 0 0 1-1 .4 1.5 1.5 0 0 1-.5-.1 9.5 9.5 0 0 0-4-1q-3.5 0-5 2.5a12 12 0 0 0-1.5 5.4 7.1 7.1 0 0 1 2.4-1.9 8.5 8.5 0 0 1 3.9-.8 7.4 7.4 0 0 1 3.7 1 6.2 6.2 0 0 1 2.4 2.5 7.8 7.8 0 0 1 1 3.7 7 7 0 0 1-1 3.5 6.5 6.5 0 0 1-2.6 2.6 8.4 8.4 0 0 1-4 .9zm0-2.6a5.2 5.2 0 0 0 2.5-.6 4.2 4.2 0 0 0 1.6-1.6 4.4 4.4 0 0 0 .6-2.2 4.7 4.7 0 0 0-1.1-3.4 4.4 4.4 0 0 0-3.5-1.3 6.1 6.1 0 0 0-5.8 3.4q.9 5.7 5.7 5.7zM819.3 699.7a1.6 1.6 0 0 1-1.2-.4 1.5 1.5 0 0 1-.5-1.2 5 5 0 0 1 1-3 10.7 10.7 0 0 1 2.2-2.4l3.6-2.4 3-2a9 9 0 0 0 1.8-1.8 3.3 3.3 0 0 0 .7-2.1 3.5 3.5 0 0 0-1.1-2.8 5.5 5.5 0 0 0-3.7-1 12.7 12.7 0 0 0-5.3 1 1.3 1.3 0 0 1-.5.2 1 1 0 0 1-.9-.3 1.2 1.2 0 0 1-.3-.9 1.2 1.2 0 0 1 .7-1.1 15 15 0 0 1 6.8-1.6 8 8 0 0 1 3.6.8 6.3 6.3 0 0 1 2.5 2.2 6 6 0 0 1-.1 6.6 12.2 12.2 0 0 1-2.6 2.8c-1 .7-2.2 1.7-3.8 2.7s-2.5 1.7-3.2 2.3a5.3 5.3 0 0 0-1.6 1.8h10.7a1.3 1.3 0 0 1 1 .4 1.2 1.2 0 0 1 .4 1 1.2 1.2 0 0 1-.4.8 1.3 1.3 0 0 1-1 .4zm25.3.3a7.2 7.2 0 0 1-6.2-3 16.3 16.3 0 0 1 0-16.1 8 8 0 0 1 12.4 0 16.2 16.2 0 0 1 0 16.1 7.2 7.2 0 0 1-6.2 3zm0-2.6a4.6 4.6 0 0 0 4-2.2 14.1 14.1 0 0 0 0-12.4 4.9 4.9 0 0 0-8.1 0 14.2 14.2 0 0 0 0 12.4 4.6 4.6 0 0 0 4 2.2zm15 2.3a1.3 1.3 0 0 1-.8-.4 1.3 1.3 0 0 1-.4-.9 1.3 1.3 0 0 1 .4-1 1.2 1.2 0 0 1 .9-.3h3.6v-15.6l-3 1.5a1.7 1.7 0 0 1-.8.2 1.3 1.3 0 0 1-1-.4 1.4 1.4 0 0 1 .4-2.2l4.2-2.2a2 2 0 0 1 .9-.2h.6a1.5 1.5 0 0 1 1.5 1.5V697h3a1.3 1.3 0 0 1 1 .4 1.3 1.3 0 0 1 .3 1 1.2 1.2 0 0 1-.4.9 1.3 1.3 0 0 1-1 .4zm21 .1a1.3 1.3 0 0 1-1-.4 1.4 1.4 0 0 1-.4-1 1.6 1.6 0 0 1 .2-.7l8.5-16.8h-11.2a1.3 1.3 0 0 1-1.3-1.3 1.3 1.3 0 0 1 .4-1 1.3 1.3 0 0 1 1-.4h12.5a1.8 1.8 0 0 1 1.2.4 1.6 1.6 0 0 1 .5 1.2 3.2 3.2 0 0 1-.3 1.4l-8.8 17.8a1.4 1.4 0 0 1-.5.6 1.5 1.5 0 0 1-.8.3z"/>
    <path class="uk-svg-muted-background" fill="#f0f0f0" d="M102.6 689.7h135.5a1 1 0 0 1 1 1 1 1 0 0 1-1 1H102.6a1 1 0 0 1-1-1 1 1 0 0 1 1-1zM375.6 689.7H511a1 1 0 0 1 1 1 1 1 0 0 1-1 1H375.6a1 1 0 0 1-1-1 1 1 0 0 1 1-1zM648.5 689.7h135.4a1 1 0 0 1 1 1 1 1 0 0 1-1 1H648.5a1 1 0 0 1-1-1 1 1 0 0 1 1-1z" opacity=".6" style="isolation:isolate"/>
    <circle class="uk-preserve" cx="41.4" cy="621.1" r="13.2" fill="url(#svg-gradient-circle-chart)"/>
    <circle class="uk-preserve" cx="41.4" cy="621.1" r="5.2" fill="#fff"/>
    <circle class="uk-preserve" cx="313.4" cy="509.1" r="13.2" fill="url(#svg-gradient-circle-chart)"/>
    <circle class="uk-preserve" cx="313.4" cy="509.1" r="5.2" fill="#fff"/>
    <circle class="uk-preserve" cx="585.4" cy="409.1" r="13.2" fill="url(#svg-gradient-circle-chart)"/>
    <circle class="uk-preserve" cx="585.4" cy="409.1" r="5.2" fill="#fff"/>
    <circle class="uk-preserve" cx="854.4" cy="356.1" r="13.2" fill="url(#svg-gradient-circle-chart)"/>
    <circle class="uk-preserve" cx="854.4" cy="356.1" r="5.2" fill="#fff"/>
    <circle class="uk-preserve" cx="1122.4" cy="274.1" r="13.2" fill="url(#svg-gradient-circle-chart)"/>
    <circle class="uk-preserve" cx="1122.4" cy="274.1" r="5.2" fill="#fff"/>
</svg>
