<svg xmlns="http://www.w3.org/2000/svg" viewBox="0 0 1300 1300" width="1300" height="1300">
    <path fill="#fff" d="M698.6 1107.7a254 254 0 0 1-359 0l-158-158a60 60 0 1 1 84.7-85.4l.3.3 158 158.1c52 52 137 52 189 0s52-137 0-188.9l-158-158a60 60 0 1 1 84.5-85.4l.4.4 158 158a254 254 0 0 1 0 358.9zm270-633.3l-158.1-158c-52-52-52-137 0-189a60 60 0 1 0-84.6-85.3l-.4.4a254.2 254.2 0 0 0 0 358.9l158 158a60 60 0 0 0 85-85zM872.9 190a60 60 0 0 0-.2 84.7l.2.3 158.1 158c52 52 52 137 0 189s-137 52-189 0L673.6 453.2c-98.8-98.8-260-98.8-358.8 0s-98.9 260 0 358.9l158 158a60 60 0 0 0 85-85l-158-158c-52-52-52-137 0-188.9s137-52 188.9 0L757 706.8c98.8 98.8 260 98.8 358.8 0s98.9-260 0-358.9L958 190a60.2 60.2 0 0 0-85 0z" opacity=".1" style="isolation:isolate"/>
</svg>
