<svg xmlns="http://www.w3.org/2000/svg" width="1920" height="850" viewBox="0 0 1920 850">
    <linearGradient id="a" x1="1275.8" x2="466" y1="-607.6" y2="2039.5" gradientTransform="matrix(1 0 0 -1 0 850)" gradientUnits="userSpaceOnUse">
        <stop offset="0" stop-color="#6852ed"/>
        <stop offset=".8" stop-color="#b713fb"/>
        <stop offset="1" stop-color="#ef7171"/>
    </linearGradient>
    <linearGradient id="b" x1="563.5" x2="564.8" y1="980.5" y2="979.9" gradientTransform="rotate(90 71127.4 19914) scale(92)" gradientUnits="userSpaceOnUse">
        <stop offset="0" stop-color="#ed616f"/>
        <stop offset="1" stop-color="#ef7171" stop-opacity=".8"/>
    </linearGradient>
    <linearGradient id="c" x1="563.5" x2="564.5" y1="980.6" y2="980.1" gradientTransform="matrix(0 92 -92 0 91363.1 -51376)" gradientUnits="userSpaceOnUse">
        <stop offset="0" stop-color="#6852ed"/>
        <stop offset="1" stop-color="#b713fb" stop-opacity=".9"/>
    </linearGradient>
    <path fill="url(#a)" d="M0 0h1920v850.7H0z"/>
    <path fill="#3f1abb" d="M1920 0v366.8a412.2 412.2 0 0 1-26.3 26.6l-495.4 457.2h-679c-33.6-133.5 9.9-289.5 121.2-392.2L1337.3 0z" opacity=".2" style="isolation:isolate"/>
    <path fill="#3f1abb" d="M1710.8 0a441.5 441.5 0 0 1-34 85.2l-401.9 765.5H669.5a435 435 0 0 1 37.9-308.2L992.2 0z" opacity=".2" style="isolation:isolate"/>
    <path fill="#fff" d="M1653 629.9a49.4 49.4 0 0 0-49.5 49.4v171.4h99.3V679.5a49.9 49.9 0 0 0-49.7-49.6zm-479.7-172.1a210 210 0 0 0-209.6 209.5v183.3h99.3V667.3c0-60.7 49.6-110.3 110.3-110.3s110.3 49.6 110.3 110.3v183.3h99.3V667.3a210 210 0 0 0-209.6-209.5zm479.8 0a210 210 0 0 0-209.6 209.6v183.3h99.3V667.3c0-60.7 49.6-110.3 110.3-110.3a49.6 49.6 0 0 0 0-99.2zM1175 620a49.7 49.7 0 0 0-49.4 49.9v180.7h99.3V669.5A49.7 49.7 0 0 0 1175 620zm-319.4.5a49.7 49.7 0 0 0-49.9 49.4v180.7H905V669.9a49.7 49.7 0 0 0-49.4-49.4z"/>
    <circle cx="855" cy="670.4" r="46" fill="url(#b)"/>
    <circle cx="1171.7" cy="507.8" r="46" fill="url(#c)"/>
</svg>
