<svg width="1920" height="1145" xmlns="http://www.w3.org/2000/svg">
 <clipPath id="a">
  <path id="svg_1" d="m0,0l1920,0l0,1145l-1920,0l0,-1145z" fill="none"/>
 </clipPath>
 <defs>
  <linearGradient y2="1.91283" y1="0.01296" x2="0.44427" x1="0.54427" id="b">
   <stop stop-color="#6852ed" offset="0"/>
   <stop stop-color="#b713fb" offset="1"/>
  </linearGradient>
  <linearGradient y2="0.52743" y1="0.52743" x2="0.02446" x1="1" id="svg_14">
   <stop stop-opacity="0.99219" stop-color="#7838d1" offset="0"/>
   <stop stop-opacity="0.79297" stop-color="#6f1ed8" offset="1"/>
  </linearGradient>
  <linearGradient y2="0.34896" y1="0" x2="0.69213" x1="0.43336" id="svg_15">
   <stop stop-opacity="0.99609" stop-color="#ffffff" offset="0"/>
   <stop stop-opacity="0.89453" stop-color="#dddddd" offset="1"/>
  </linearGradient>
 </defs>
 <g>
  <title>background</title>
  <rect fill="none" id="canvas_background" height="602" width="802" y="-1" x="-1"/>
 </g>
 <g>
  <title>Layer 1</title>
  <g id="svg_2" clip-path="url(#a)">
   <path id="svg_3" d="m0,-0.8l1920,0l0,837s-466.8,46 -946.8,46s-973.2,-46.1 -973.2,-46.1l0,-836.9z" fill="url(#b)"/>
   <path id="svg_4" opacity="0.2" d="m924,323.6l586.6,-492.3a315.8,315.8 0 0 1 406,483.9l-586.6,492.2a315.8,315.8 0 1 1 -406,-483.8z" fill="#3f1abb"/>
   <circle id="svg_5" fill="url(#svg_15)" r="109.8" cy="842.8" cx="1458.4"/>
   <g id="svg_6" opacity="0.5">
    <path id="svg_7" fill="#dedede" opacity="0.2" d="m241.6,768.4l289.2,0a6.4,6.4 0 0 1 6.4,6.3a6.4,6.4 0 0 1 -6.4,6.4l-289.2,0a6.4,6.4 0 0 1 -6.4,-6.4a6.4,6.4 0 0 1 6.4,-6.4l0,0.1zm157,48.3l199.3,0a6.4,6.4 0 0 1 6.4,6.3a6.4,6.4 0 0 1 -6.4,6.4l-199.3,0a6.4,6.4 0 0 1 -6.4,-6.4a6.4,6.4 0 0 1 6.4,-6.3zm-143.6,0l124.1,0a6.4,6.4 0 0 1 6.4,6.3a6.4,6.4 0 0 1 -6.4,6.4l-124.1,0a6.4,6.4 0 0 1 -6.4,-6.4a6.4,6.4 0 0 1 6.4,-6.3zm11.4,-72.5l92.6,0a6.4,6.4 0 0 1 6.4,6.4a6.4,6.4 0 0 1 -6.4,6.4l-92.6,0a6.4,6.4 0 0 1 -6.4,-6.4a6.4,6.4 0 0 1 6.4,-6.4zm67.1,48.3l92.6,0a6.4,6.4 0 0 1 6.4,6.4a6.4,6.4 0 0 1 -6.4,6.4l-92.6,0a6.4,6.4 0 0 1 -6.4,-6.4a6.4,6.4 0 0 1 6.4,-6.4zm-112.1,0l92.6,0a6.4,6.4 0 0 1 6.4,6.4a6.4,6.4 0 0 1 -6.4,6.4l-92.6,0a6.4,6.4 0 0 1 -6.3,-6.4a6.4,6.4 0 0 1 6.3,-6.4zm157.1,-48.3l92.5,0a6.4,6.4 0 0 1 6.3,6.4a6.4,6.4 0 0 1 -6.3,6.4l-92.6,0a6.4,6.4 0 0 1 -6.4,-6.4a6.4,6.4 0 0 1 6.4,-6.4l0.1,0zm67.1,48.3l92.6,0a6.4,6.4 0 0 1 6.3,6.4a6.4,6.4 0 0 1 -6.3,6.4l-92.6,0a6.4,6.4 0 0 1 -6.4,-6.4a6.4,6.4 0 0 1 6.4,-6.4zm44.9,-48.3l92.6,0a6.4,6.4 0 0 1 6.4,6.4a6.4,6.4 0 0 1 -6.4,6.4l-92.6,0a6.4,6.4 0 0 1 -6.4,-6.4a6.4,6.4 0 0 1 6.4,-6.4zm60.5,24.2l136,0a6.4,6.4 0 0 1 6.4,6.3a6.4,6.4 0 0 1 -6.4,6.4l-136,0a6.4,6.4 0 0 1 -6.4,-6.4a6.4,6.4 0 0 1 6.4,-6.4l0,0.1zm6.6,24.1l92.6,0a6.4,6.4 0 0 1 6.4,6.4a6.4,6.4 0 0 1 -6.4,6.4l-92.6,0a6.4,6.4 0 0 1 -6.4,-6.4a6.4,6.4 0 0 1 6.4,-6.4z"/>
   </g>
   <g id="svg_8" opacity="0.5">
    <path id="svg_9" fill="#dedede" opacity="0.2" d="m246.7,669.3l289.2,0a6.4,6.4 0 0 1 6.4,6.4a6.4,6.4 0 0 1 -6.4,6.4l-289.2,0a6.4,6.4 0 0 1 -6.4,-6.4a6.4,6.4 0 0 1 6.4,-6.4zm157,48.3l199.3,0a6.4,6.4 0 0 1 6.4,6.4a6.4,6.4 0 0 1 -6.4,6.4l-199.3,0a6.4,6.4 0 0 1 -6.4,-6.4a6.4,6.4 0 0 1 6.4,-6.4zm-143.6,0l124.1,0a6.4,6.4 0 0 1 6.4,6.4a6.4,6.4 0 0 1 -6.4,6.4l-124.1,0a6.4,6.4 0 0 1 -6.4,-6.4a6.4,6.4 0 0 1 6.4,-6.4zm11.4,-72.4l92.6,0a6.4,6.4 0 0 1 6.4,6.3a6.4,6.4 0 0 1 -6.4,6.4l-92.6,0a6.4,6.4 0 0 1 -6.4,-6.4a6.4,6.4 0 0 1 6.4,-6.3zm67.1,48.3l92.6,0a6.4,6.4 0 0 1 6.4,6.4a6.4,6.4 0 0 1 -6.4,6.3l-92.6,0a6.4,6.4 0 0 1 -6.4,-6.3a6.4,6.4 0 0 1 6.4,-6.4zm-112,0l92.6,0a6.4,6.4 0 0 1 6.3,6.4a6.4,6.4 0 0 1 -6.4,6.3l-92.6,0a6.4,6.4 0 0 1 -6.3,-6.3a6.4,6.4 0 0 1 6.4,-6.4zm157,-48.3l92.6,0a6.4,6.4 0 0 1 6.3,6.3a6.4,6.4 0 0 1 -6.3,6.4l-92.6,0a6.4,6.4 0 0 1 -6.4,-6.4a6.4,6.4 0 0 1 6.4,-6.3zm67.1,48.3l92.6,0a6.4,6.4 0 0 1 6.3,6.4a6.4,6.4 0 0 1 -6.3,6.3l-92.6,0a6.4,6.4 0 0 1 -6.4,-6.3a6.4,6.4 0 0 1 6.4,-6.4zm44.9,-48.3l92.6,0a6.4,6.4 0 0 1 6.4,6.3a6.4,6.4 0 0 1 -6.4,6.4l-92.6,0a6.4,6.4 0 0 1 -6.4,-6.4a6.4,6.4 0 0 1 6.4,-6.3zm60.4,24.1l136.2,0a6.4,6.4 0 0 1 6.4,6.4a6.4,6.4 0 0 1 -6.4,6.4l-136.2,0a6.4,6.4 0 0 1 -6.4,-6.4a6.4,6.4 0 0 1 6.4,-6.4zm6.7,24.2l92.6,0a6.4,6.4 0 0 1 6.4,6.4a6.4,6.4 0 0 1 -6.4,6.3l-92.6,0a6.4,6.4 0 0 1 -6.4,-6.3a6.4,6.4 0 0 1 6.4,-6.4z"/>
   </g>
   <g id="svg_10" opacity="0.5">
    <path id="svg_11" fill="#dedede" opacity="0.2" d="m241.6,871.5l289.2,0a6.4,6.4 0 0 1 6.4,6.3a6.4,6.4 0 0 1 -6.4,6.4l-289.2,0a6.4,6.4 0 0 1 -6.4,-6.4a6.4,6.4 0 0 1 6.4,-6.3zm157,48.3l199.3,0a6.4,6.4 0 0 1 6.4,6.4a6.4,6.4 0 0 1 -6.4,6.3l-199.3,0a6.4,6.4 0 0 1 -6.4,-6.4a6.4,6.4 0 0 1 6.4,-6.3zm-143.6,0l124.1,0a6.4,6.4 0 0 1 6.4,6.4a6.4,6.4 0 0 1 -6.4,6.3l-124.1,0a6.4,6.4 0 0 1 -6.4,-6.4a6.4,6.4 0 0 1 6.4,-6.3zm11.4,-72.5l92.6,0a6.4,6.4 0 0 1 6.4,6.4a6.4,6.4 0 0 1 -6.4,6.4l-92.6,0a6.4,6.4 0 0 1 -6.4,-6.4a6.4,6.4 0 0 1 6.4,-6.4zm67.1,48.3l92.6,0a6.4,6.4 0 0 1 6.4,6.4a6.4,6.4 0 0 1 -6.4,6.4l-92.6,0a6.4,6.4 0 0 1 -6.4,-6.4a6.4,6.4 0 0 1 6.4,-6.4zm-112.1,0l92.6,0a6.4,6.4 0 0 1 6.4,6.4a6.4,6.4 0 0 1 -6.4,6.4l-92.6,0a6.4,6.4 0 0 1 -6.3,-6.4a6.4,6.4 0 0 1 6.3,-6.4zm157.1,-48.3l92.5,0a6.4,6.4 0 0 1 6.3,6.4a6.4,6.4 0 0 1 -6.3,6.4l-92.6,0a6.4,6.4 0 0 1 -6.4,-6.4a6.4,6.4 0 0 1 6.4,-6.4l0.1,0zm67.1,48.3l92.6,0a6.4,6.4 0 0 1 6.3,6.4a6.4,6.4 0 0 1 -6.3,6.4l-92.6,0a6.4,6.4 0 0 1 -6.4,-6.4a6.4,6.4 0 0 1 6.4,-6.4zm44.9,-48.3l92.6,0a6.4,6.4 0 0 1 6.4,6.4a6.4,6.4 0 0 1 -6.4,6.4l-92.6,0a6.4,6.4 0 0 1 -6.4,-6.4a6.4,6.4 0 0 1 6.4,-6.4zm60.5,24.2l136,0a6.4,6.4 0 0 1 6.4,6.3a6.4,6.4 0 0 1 -6.4,6.4l-136,0a6.4,6.4 0 0 1 -6.4,-6.4a6.4,6.4 0 0 1 6.4,-6.3zm6.6,24.1l92.6,0a6.4,6.4 0 0 1 6.4,6.4a6.4,6.4 0 0 1 -6.4,6.4l-92.6,0a6.4,6.4 0 0 1 -6.4,-6.4a6.4,6.4 0 0 1 6.4,-6.4z"/>
   </g>
   <ellipse id="svg_12" transform="rotate(-15, 536.1, 970.2)" ry="174.5" rx="174" fill="url(#svg_14)" cy="970.2" cx="536.1"/>
  </g>
 </g>
</svg>