<svg xmlns="http://www.w3.org/2000/svg" viewBox="0 0 124 32" width="124" height="32">
    <path d="M10.21,30.53A10.22,10.22,0,0,1,0,20.32v-9A2.42,2.42,0,1,1,4.83,11a1.61,1.61,0,0,1,0,.31v9a5.38,5.38,0,0,0,10.75,0v-9A2.42,2.42,0,0,1,20.41,11a1.61,1.61,0,0,1,0,.31h0v9A10.22,10.22,0,0,1,10.21,30.53ZM35.9,20.2v-9a5.39,5.39,0,0,1,5.37-5.38A2.42,2.42,0,0,0,41.58,1a1.61,1.61,0,0,0-.31,0A10.23,10.23,0,0,0,31.06,11.21v9a2.42,2.42,0,0,0,4.84,0ZM41.27,9.38a2.43,2.43,0,0,0-2.42,2.41h0v9a5.37,5.37,0,0,1-10.74,0h0V11.21a10.21,10.21,0,0,0-20.42,0h0v9a2.42,2.42,0,0,0,4.84,0v-9a5.37,5.37,0,0,1,10.74,0h0v9.58a10.21,10.21,0,0,0,20.42,0h0v-9A2.43,2.43,0,0,0,41.27,9.38Z" fill="#342838"/>
    <path d="M63,18.26H57.71v5.49H55V10.32h8.69v2.24h-6V16H63Z" fill="#342838"/>
    <path d="M73.72,21.5h5.87v2.23H71V10.32h2.77Z" fill="#342838"/>
    <path d="M97.28,17.34a8,8,0,0,1-.73,3.48,5.16,5.16,0,0,1-2,2.3,5.51,5.51,0,0,1-3,.81,5.69,5.69,0,0,1-3-.79,5.51,5.51,0,0,1-2-2.3,8.06,8.06,0,0,1-.73-3.42v-.67a8.09,8.09,0,0,1,.72-3.49,5.26,5.26,0,0,1,2-2.31,5.89,5.89,0,0,1,6,0,5.25,5.25,0,0,1,2,2.31,8.19,8.19,0,0,1,.71,3.48Zm-2.79-.61a5.64,5.64,0,0,0-.76-3.21A2.67,2.67,0,0,0,90,12.94a2.61,2.61,0,0,0-.57.58,5.55,5.55,0,0,0-.77,3.18v.66a5.7,5.7,0,0,0,.75,3.18,2.65,2.65,0,0,0,3.69.64,2.55,2.55,0,0,0,.63-.64,5.71,5.71,0,0,0,.76-3.18Z" fill="#342838"/>
    <path d="M115.44,19.88l1.8-9.56H120l-3,13.43h-2.85l-2.18-9-2.19,9h-2.74l-3-13.43h2.76l1.82,9.54,2.22-9.54h2.34Z" fill="#342838"/>
</svg>
