<svg xmlns="http://www.w3.org/2000/svg" width="170" height="82" viewBox="0 0 170 82">
    <path fill="#474747" d="M33 22h1.9v39.5H33zM40.4 61.5V35.8h1.9v25.7zm-.2-34.4c0-.8.4-1.3 1.2-1.3a1.06 1.06 0 0 1 1.2 1.2 1.12 1.12 0 0 1-.3.8 1.34 1.34 0 0 1-1 .4.82.82 0 0 1-.8-.3 1.12 1.12 0 0 1-.3-.8zM55.9 61.5H54V40.3a2.87 2.87 0 0 0-.7-2 2.41 2.41 0 0 0-1.9-.8H49v24h-2V35.8h4.4a5.56 5.56 0 0 1 1.9.3 2.82 2.82 0 0 1 1.4 1 2.73 2.73 0 0 1 .8 1.5 5.53 5.53 0 0 1 .3 1.8zM67.8 39.9v-.6a1.32 1.32 0 0 0-.3-.8 1.58 1.58 0 0 0-.7-.7 2.78 2.78 0 0 0-1.5-.3h-2.5v20.1a2.87 2.87 0 0 0 .7 2 2.41 2.41 0 0 0 1.9.8 2.56 2.56 0 0 0 1.9-.8 3.17 3.17 0 0 0 .6-2V39.9zm1.9 17.5a5.45 5.45 0 0 1-1.1 3.3 5.12 5.12 0 0 1-1.4 1 5.81 5.81 0 0 1-1.9.3 3.79 3.79 0 0 1-1.9-.4 3.57 3.57 0 0 1-1.4-1 2.73 2.73 0 0 1-.8-1.5 5.53 5.53 0 0 1-.3-1.8V35.8h4.3a7.78 7.78 0 0 1 1.6.1 3.09 3.09 0 0 1 1 .4V22h1.9zM73.2 55.7h1.9v1.9a2.87 2.87 0 0 0 .7 2 2.41 2.41 0 0 0 1.9.8 2.56 2.56 0 0 0 1.9-.8 3.22 3.22 0 0 0 .7-2v-3.2a4.17 4.17 0 0 0-.3-1.6 9.15 9.15 0 0 0-.7-1.4 11.5 11.5 0 0 0-1-1.3l-1.2-1.2-1.4-1.4a5.89 5.89 0 0 1-1.2-1.6 8.91 8.91 0 0 1-.9-1.7 6.47 6.47 0 0 1-.3-2v-2.3a5.81 5.81 0 0 1 .3-1.9 5 5 0 0 1 .8-1.5 5.12 5.12 0 0 1 1.4-1 6.17 6.17 0 0 1 3.8 0 2.82 2.82 0 0 1 1.4 1 2.73 2.73 0 0 1 .8 1.5 5.81 5.81 0 0 1 .3 1.9V42h-1.9v-2.2a2.87 2.87 0 0 0-.7-2 2.41 2.41 0 0 0-1.9-.8 2.56 2.56 0 0 0-1.9.8 3.22 3.22 0 0 0-.7 2v2.5a4.17 4.17 0 0 0 .3 1.6 6.11 6.11 0 0 0 .7 1.4 11.5 11.5 0 0 0 1 1.3l1.2 1.2c.5.5.9 1 1.4 1.5a7.91 7.91 0 0 1 1.2 1.5 5.1 5.1 0 0 1 .8 1.7 5.81 5.81 0 0 1 .3 1.9v3a5.45 5.45 0 0 1-1.1 3.3 5.12 5.12 0 0 1-1.4 1 4.27 4.27 0 0 1-1.8.3 3.79 3.79 0 0 1-1.9-.4 3.57 3.57 0 0 1-1.4-1 2.73 2.73 0 0 1-.8-1.5 5.53 5.53 0 0 1-.3-1.8zM86 37.5h-2.1v-1.7H86v-3.2h1.9v3.2h3.5v1.7h-3.5v20a3.34 3.34 0 0 0 .6 2 2.27 2.27 0 0 0 1.9.8h.8V62h-.8a3.79 3.79 0 0 1-1.9-.4 3.75 3.75 0 0 1-2.2-2.5 4.69 4.69 0 0 1-.3-1.7zM100.6 37.3a2.74 2.74 0 0 0-.9-.1 2.56 2.56 0 0 0-1.9.8 3.17 3.17 0 0 0-.6 2v21.5h-1.9V40.2a5.81 5.81 0 0 1 .3-1.9 5 5 0 0 1 .8-1.5 5.12 5.12 0 0 1 1.4-1 4 4 0 0 1 1.9-.3 2.74 2.74 0 0 1 .9.1 2 2 0 0 1 .8.2zM110.4 30.1a1.16 1.16 0 0 1 1-1.3 1.4 1.4 0 0 1 .29 0c.8 0 1.2.4 1.2 1.3a1.12 1.12 0 0 1-.3.8 1.27 1.27 0 0 1-.9.4 1 1 0 0 1-.9-.4.91.91 0 0 1-.39-.8zm-4.9 27.4a3.34 3.34 0 0 0 .6 2 2.41 2.41 0 0 0 1.9.8 2.31 2.31 0 0 0 1.9-.9 4.1 4.1 0 0 0 .7-2.2V37h-2.5a2.56 2.56 0 0 0-1.9.8 3.22 3.22 0 0 0-.7 2zm-1.7-27.4c0-.8.4-1.3 1.2-1.3s1.2.4 1.2 1.3a1.12 1.12 0 0 1-.3.8 1.27 1.27 0 0 1-.9.4 1 1 0 0 1-.9-.4 1.12 1.12 0 0 1-.3-.8zm8.7 26.8a6.47 6.47 0 0 1-.3 2 5.71 5.71 0 0 1-.8 1.6 3.58 3.58 0 0 1-1.4 1.1 4.17 4.17 0 0 1-2 .4 5.56 5.56 0 0 1-1.9-.3 2.82 2.82 0 0 1-1.4-1 3.58 3.58 0 0 1-.8-1.5 5.81 5.81 0 0 1-.3-1.9V39.9a5.45 5.45 0 0 1 1.1-3.3 5.12 5.12 0 0 1 1.4-1 5.81 5.81 0 0 1 1.9-.3h4.4zM126 61.5h-1.8V40.3a3 3 0 0 0-.6-2 2.33 2.33 0 0 0-1.9-.7h-2.6v24h-1.9V35.8h4.4a4.17 4.17 0 0 1 2 .4 3.87 3.87 0 0 1 1.4 1 4 4 0 0 1 1.5-1 4.45 4.45 0 0 1 2-.4h4.4v25.7H131v-24h-2.6a2.93 2.93 0 0 0-1.9.7 3.17 3.17 0 0 0-.6 2v21.3z"/>
</svg>
