<svg xmlns="http://www.w3.org/2000/svg" width="170" height="82" viewBox="0 0 170 82">
    <path fill="#474747" d="M18 22v40h40V22zm23.7 12.6a4.17 4.17 0 0 1 .4-2 2.85 2.85 0 0 1 1.1-1.3 3.3 3.3 0 0 1 1.7-.5 3.18 3.18 0 0 1 2.2.7 3 3 0 0 1 1 2.1h-1.6a1.38 1.38 0 0 0-1.5-1.5 1.29 1.29 0 0 0-1.2.6 3 3 0 0 0-.4 1.8v.6a3.31 3.31 0 0 0 .4 1.9 1.39 1.39 0 0 0 1.2.6 1.26 1.26 0 0 0 1.5-1.4h1.6a3 3 0 0 1-1 2 3.18 3.18 0 0 1-2.2.7 3 3 0 0 1-2.4-1 4.07 4.07 0 0 1-.9-2.8zm-8 17.4h-5.3v-7.9h5.3v1.3H30v1.9h3.1v1.3H30v2.1h3.7zm13.9.4L28 32.8l.7-.7 19.6 19.6zM68 38.3V22h7.2v3.2h-3.5v3.2h3.4v3.1h-3.4v3.7h3.8v3.2H68zM83.2 38.3h-4.9L76 22h3.6l1 10.8L81.8 22h3.6zM86.4 38.3V22h7.2v3.2h-3.5v3.2h3.4v3.1h-3.4v3.7h3.8v3.2h-7.5zM95.2 38.3V22h3.6v13.2h3.7v3.2h-7.3zM107.4 38.3H104V33l-2.9-11h3.6l1 5.5 1-5.5h3.6l-2.9 11zM119.8 22v16.3h-3.5l-1.8-8.2v8.2H111V22h3.7l1.7 7.8V22zM76.9 54.5v3.1a3.71 3.71 0 0 1-1.2 3.1 4.94 4.94 0 0 1-3.4 1 4.52 4.52 0 0 1-3.1-1.1 4 4 0 0 1-1.2-3.1v-7.6a5.37 5.37 0 0 1 1.1-3.6 4.29 4.29 0 0 1 3.4-1.2 8.87 8.87 0 0 1 1.7.2 6.11 6.11 0 0 1 1.4.7 4 4 0 0 1 1 1.2 4.3 4.3 0 0 1 .3 1.7v2.9h-3.6v-1.9q0-1.5-.9-1.5a.76.76 0 0 0-.7.3 2 2 0 0 0-.2.9v7.7a3.09 3.09 0 0 0 .2.9.72.72 0 0 0 .6.4.87.87 0 0 0 .6-.3 1.34 1.34 0 0 0 .3-1v-2.8zM82 54.1v7.4h-3.6V45.2H82V51h1.7v-5.8h3.6v16.3h-3.6v-7.4zM95.9 45.2l1.8 16.3h-3.5l-.3-2.5h-1.8l-.2 2.5h-3.5l1.9-16.3zm-2.7 3h-.3l-.5 7.8h1.3zM107.5 61.5h-3.2l-2-11.8v11.8h-3.5V45.2h5.5l1.5 8.5 1.5-8.5h5.6v16.3h-3.5V49.7zM114.6 61.5V45.2h4.9a4.24 4.24 0 0 1 2.8.8 3.86 3.86 0 0 1 .9 2.9v1.2c0 .3-.1.4-.1.6a2.53 2.53 0 0 1-1 1.4 4.34 4.34 0 0 1-.7.3 1.91 1.91 0 0 1 1 .5 1.84 1.84 0 0 1 .6.7 4.76 4.76 0 0 1 .3.9 3 3 0 0 1 .1.9v.9a12.5 12.5 0 0 1-.2 2.2 4.86 4.86 0 0 1-.6 1.7 3.25 3.25 0 0 1-1.2 1.1 5.56 5.56 0 0 1-1.9.3h-4.9zm3.6-10.2h.7c.2 0 .3 0 .4-.1s.2-.2.2-.3a.63.63 0 0 0 .1-.4v-2a.74.74 0 0 0-.67-.8H118zm0 2.5v4.7h.4c.9 0 1.4-.4 1.4-1.2v-2a1.61 1.61 0 0 0-.3-1.1 1 1 0 0 0-.8-.4zM124.8 61.5V45.2h7.2v3.2h-3.6v3.2h3.4v3.1h-3.4v3.7h3.8v3.2h-7.4zM137.3 54.1v7.4h-3.7V45.2h5.5a6.86 6.86 0 0 1 1.5.2 2 2 0 0 1 .9.6 9.12 9.12 0 0 1 .6 1l.3 1.2c0 .4.1.9.1 1.5v.8c0 .2-.1.4-.1.7a4.34 4.34 0 0 1-.3.7 2.62 2.62 0 0 1-.5.6 1.88 1.88 0 0 1-.9.4 6 6 0 0 1 .8.3 2.62 2.62 0 0 1 .5.6 1.94 1.94 0 0 1 .2.7c0 .2.1.4.1.7v6.2h-3.5V55c0-.3 0-.5-.1-.6a.27.27 0 0 0-.22-.3h-.08a.63.63 0 0 0-.4-.1c-.1 0-.5.1-.7.1zm0-5.9v3.1h.9c.5 0 .7-.5.7-1.5a1.86 1.86 0 0 0-.3-1.3 1.61 1.61 0 0 0-1.1-.3zM148.1 61.7a4.58 4.58 0 0 1-3.6-1.2 5.1 5.1 0 0 1-1.1-3.5v-1.6h3.6v1.5c0 1.1.3 1.6.9 1.6a.61.61 0 0 0 .6-.3 2 2 0 0 0 .2-.8 3.75 3.75 0 0 0-.2-1.1 4.4 4.4 0 0 0-.5-.9 7.36 7.36 0 0 0-1.2-1.1l-1.5-1.3a4.86 4.86 0 0 1-1.8-3.6 3.84 3.84 0 0 1 4.2-4.3h.6a8.17 8.17 0 0 1 1.3.2 2.86 2.86 0 0 1 1.4.8 3.84 3.84 0 0 1 .9 1.5 7.46 7.46 0 0 1 .3 2.3h-3.6v-1c0-.2-.1-.3-.2-.5a.7.7 0 0 0-.5-.2 1.42 1.42 0 0 0-.6.2.61.61 0 0 0-.3.6 1.91 1.91 0 0 0 1 1.5l2.2 1.8a3.84 3.84 0 0 1 .9.9 2.37 2.37 0 0 1 .6.9c.1.3.3.5.4.8a2 2 0 0 1 .2.8 4.17 4.17 0 0 0 .1.6v.6a7.78 7.78 0 0 1-.1 1.6 7.47 7.47 0 0 1-.4 1.4 2.82 2.82 0 0 1-.8 1.1 3.54 3.54 0 0 1-1.2.7 10.82 10.82 0 0 0-1.8 0z"/>
</svg>
