<svg xmlns="http://www.w3.org/2000/svg" width="170" height="82" viewBox="0 0 170 82">
    <path fill="#474747" d="M5 22h54v37H5z"/>
    <g fill="none" stroke="#fff" stroke-width="1.82">
        <path d="M13.7 31.2l8.1 8.2 8.5-8.5M49.7 48.8l-8.2-8.2-8.5 8.5"/>
        <path d="M13.7 41.5l8.1 8.2 19.4-19.4 8.5 8.5"/>
    </g>
    <path d="M88 33.3a1.23 1.23 0 0 1 .4.8.79.79 0 0 1-.1.4l-4.6 13.3a1.07 1.07 0 0 1-2 0l-3.4-8-3.4 8a1.07 1.07 0 0 1-2 0l-4.6-13.3c0-.1-.1-.3-.1-.4a.91.91 0 0 1 .4-.8 1.12 1.12 0 0 1 .8-.3 1.42 1.42 0 0 1 .6.2 1 1 0 0 1 .4.5l3.7 11 3.2-7.8a1.07 1.07 0 0 1 2 0l3.1 7.8 3.7-11a1 1 0 0 1 .4-.5 1.42 1.42 0 0 1 .7-.2 1 1 0 0 1 .8.3zM103.2 47.5a1 1 0 0 1-1 1 1.42 1.42 0 0 1-.6-.2 1 1 0 0 1-.4-.5l-1.4-3.2H93l-1.3 3.3a1 1 0 0 1-.4.5 1.15 1.15 0 0 1-1.3 0 .85.85 0 0 1-.2-.7v-.4l5.6-13.6a1 1 0 0 1 .4-.5.65.65 0 0 1 .6-.1 1.42 1.42 0 0 1 .6.2 1 1 0 0 1 .4.5l5.6 13.4c.2 0 .2.2.2.3zm-9.3-4.9H99l-2.6-6.2zM118.6 47.1a1.07 1.07 0 0 1-.2 1.2 1.31 1.31 0 0 1-1.4 0 4.34 4.34 0 0 1-1.1-1.2 5.63 5.63 0 0 1-.4-2.5 1.75 1.75 0 0 0-.7-1.6 3.12 3.12 0 0 0-1.7-.5h-4.4v5a1.12 1.12 0 0 1-.3.8.89.89 0 0 1-.7.3 1.62 1.62 0 0 1-.9-.3 1.21 1.21 0 0 1-.4-.7V34.1a.89.89 0 0 1 .3-.7 1.09 1.09 0 0 1 .7-.3h6.2a4.28 4.28 0 0 1 2.2.6 4.1 4.1 0 0 1 1.6 1.6 4.33 4.33 0 0 1 .6 2.3 3.86 3.86 0 0 1-.7 2.3 5.2 5.2 0 0 1-1.7 1.6 3.74 3.74 0 0 1 1.3 1.2 3.3 3.3 0 0 1 .5 1.7 16.09 16.09 0 0 0 .2 1.7c.1.3.2.5.5.6a.68.68 0 0 1 .5.4zm-3.8-6.9a3.12 3.12 0 0 0 .8-1.1 3.36 3.36 0 0 0 .3-1.5 2.79 2.79 0 0 0-.6-1.8 2 2 0 0 0-1.6-.7h-4.9v5.5h5a1.44 1.44 0 0 0 1-.4zM134.7 47.1a1.07 1.07 0 0 1-.2 1.2.85.85 0 0 1-.7.2 1.42 1.42 0 0 1-.7-.2 4.34 4.34 0 0 1-1.1-1.2 5.63 5.63 0 0 1-.4-2.5 1.75 1.75 0 0 0-.7-1.6 2.28 2.28 0 0 0-1.7-.5h-4.4v5a1.12 1.12 0 0 1-.3.8.89.89 0 0 1-.7.3 1.62 1.62 0 0 1-.9-.3 1.21 1.21 0 0 1-.4-.7V34.1a.89.89 0 0 1 .3-.7 1.09 1.09 0 0 1 .7-.3h6.2a4.28 4.28 0 0 1 2.2.6 4.1 4.1 0 0 1 1.6 1.6 4.33 4.33 0 0 1 .6 2.3 3.86 3.86 0 0 1-.7 2.3 4.36 4.36 0 0 1-1.7 1.6 3.74 3.74 0 0 1 1.3 1.2 3.3 3.3 0 0 1 .5 1.7 16.09 16.09 0 0 0 .2 1.7c.1.3.2.5.5.6a.68.68 0 0 1 .5.4zm-3.9-6.9a3.12 3.12 0 0 0 .8-1.1 3.66 3.66 0 0 0 .3-1.5 2.79 2.79 0 0 0-.6-1.8 2 2 0 0 0-1.6-.7h-4.9v5.5h5a1.29 1.29 0 0 0 1-.4zM148.1 46.8a1 1 0 0 1 0 1.37 1.12 1.12 0 0 1-.8.3h-7.7a.89.89 0 0 1-.7-.3 1.09 1.09 0 0 1-.3-.7V34.1a.89.89 0 0 1 .3-.7 1.09 1.09 0 0 1 .7-.3h7.7a1.12 1.12 0 0 1 .8.3 1 1 0 0 1 0 1.37 1.12 1.12 0 0 1-.8.3h-6.5v4.5h5.5a1.12 1.12 0 0 1 .8.3.89.89 0 0 1 .3.7.77.77 0 0 1-.3.7 1 1 0 0 1-.8.3h-5.5v4.9h6.5a1 1 0 0 1 .8.33zM164.5 33.3a.89.89 0 0 1 .3.7v13.4a1.12 1.12 0 0 1-.3.8 1 1 0 0 1-.8.3.87.87 0 0 1-.5-.1c-.2-.1-.3-.1-.4-.2l-8.6-11.3v10.6a1 1 0 0 1-2 0V34.1a1.12 1.12 0 0 1 .3-.8 1.07 1.07 0 0 1 1.2-.2 1.31 1.31 0 0 1 .4.3l8.6 11.3V34a1 1 0 0 1 1-1 3.66 3.66 0 0 1 .8.3z" fill="#474747"/>
</svg>
