<svg xmlns="http://www.w3.org/2000/svg" width="170" height="82" viewBox="0 0 170 82">
    <path fill="#474747" d="M34.8 37.8c9.5-3.1 10.5-.1 10.5 4.3v12.5h-2.9V43c0-3.6-.3-4.7-7.5-2.2v13.7H32v-18h2.4zM63 45.5c0-5.3-1.2-6.6-4.4-6.6s-4.4 1.2-4.4 6.6 1.2 6.6 4.4 6.6 4.4-1.2 4.4-6.6zm2.9 0c0 6.5-1.3 9.5-7.3 9.5s-7.3-3-7.3-9.5 1.3-9.5 7.3-9.5 7.3 3.1 7.3 9.5zM81.3 39.3a18.15 18.15 0 0 0-6.1 1.5v13.7h-2.9v-18h2.4l.4 1.3a16.13 16.13 0 0 1 6.2-1.3zM98.2 54c-8.1 1.7-9-.9-9-5v-9.6H87v-2.9h2.2V30h2.9v6.5h4.8v2.9h-4.8v8.8c0 3.1.4 4.1 5.6 3.1zM116.3 45.5c0-5.3-1.2-6.6-4.4-6.6s-4.4 1.2-4.4 6.6 1.2 6.6 4.4 6.6 4.4-1.2 4.4-6.6zm2.9 0c0 6.5-1.2 9.5-7.2 9.5s-7.3-3-7.3-9.5S106 36 112 36s7.2 3.1 7.2 9.5zM128.5 37.8c9.5-3.1 10.5-.2 10.5 4.2v12.5h-2.9V43c0-3.6-.3-4.7-7.5-2.2v13.7h-2.9v-18h2.4z"/>
</svg>
