<svg xmlns="http://www.w3.org/2000/svg" width="170" height="82" viewBox="0 0 170 82">
    <path fill="#474747" d="M73.3 30.5h-6.1v5.1h7.2v3.2h-11V19.6h11v3.2h-7.1v4.6h6.1zM83 33.5l3.2-14h4.3L85 38.8h-4l-5.6-19.2h4.3zM100.5 34.9h-5.3l-1 3.9h-4.1l6-19.3h3.6l6 19.3h-4.2zm-4.4-3.3h3.6l-1.8-6.9zM56.4 58.4h-5.3l-1 3.9H46L52 43h3.6l6.1 19.3h-4.2zM52 55.1h3.6l-1.8-6.9zM67.5 62.3h-3.9V43h3.9zM74.6 59.1h6.8v3.2H70.7V43h3.9zM93.6 54h-6.1v5.1h7.2v3.2h-11V43h11v3.2h-7.1v4.6h6.1zM106.9 54h-6.1v5.1h7.2v3.2H97V43h11v3.2h-7.2v4.6h6.1zM123.7 62.3h-3.9l-5.7-12.6v12.6h-3.9V43h3.9l5.7 12.6V43h3.9z"/>
    <path fill="#c5c5c5" d="M108.1 33.7a5.49 5.49 0 0 1 .8-2.9 14.32 14.32 0 0 1 2.5-2.6 11.88 11.88 0 0 1-1.3-2.5 5.81 5.81 0 0 1-.4-2.3 5.9 5.9 0 0 1 1.4-4 5.13 5.13 0 0 1 3.7-1.4 4.23 4.23 0 0 1 3.3 1.4 5.15 5.15 0 0 1 1.3 3.4 5.87 5.87 0 0 1-.6 2.6 6.3 6.3 0 0 1-1.7 2l-1.1 1 3.3 4.4h.1a4.86 4.86 0 0 0 .6-1.7 12.21 12.21 0 0 0 .2-2h3a13.67 13.67 0 0 1-.4 3.6 8.62 8.62 0 0 1-1.3 2.9l2.8 3.7h-4.6l-.9-1.2a7.57 7.57 0 0 1-2.2 1.1 6.12 6.12 0 0 1-2.4.4 5.79 5.79 0 0 1-4.4-1.6 5.6 5.6 0 0 1-1.7-4.3zm6.3 2.6a7.17 7.17 0 0 0 1.3-.2 5.74 5.74 0 0 0 1.2-.5l-3.7-5-.2.1a5.82 5.82 0 0 0-.7 1.3 5.68 5.68 0 0 0-.2 1.3 3.65 3.65 0 0 0 .6 2.1 2 2 0 0 0 1.7.9zm-1.1-12.9a2.63 2.63 0 0 0 .3 1.2 6.11 6.11 0 0 0 .7 1.4l.8-.6a2.39 2.39 0 0 0 1.2-2.3 2 2 0 0 0-.4-1.3 1.39 1.39 0 0 0-1.1-.6 1.15 1.15 0 0 0-1.1.6 3.71 3.71 0 0 0-.4 1.6z"/>
</svg>
