<svg xmlns="http://www.w3.org/2000/svg" width="170" height="82" viewBox="0 0 170 82">
    <path fill="none" stroke="#474747" stroke-miterlimit="10" stroke-width="2" d="M68.5 29.9a24.48 24.48 0 1 1-21-11.9 23.81 23.81 0 0 1 9.7 2"/>
    <circle cx="64.2" cy="23.4" r="4.4" fill="none" stroke="#474747" stroke-miterlimit="10" stroke-width="2"/>
    <path fill="#474747" d="M89.4 38.5a4.77 4.77 0 0 1-.9 3.1 3.62 3.62 0 0 1-5.12.08l-.08-.08a4.75 4.75 0 0 1-1-3.1v-1.7a4.52 4.52 0 0 1 1-3.2 3.12 3.12 0 0 1 2.6-1.1 3.3 3.3 0 0 1 2.6 1.1 4.92 4.92 0 0 1 1 3.2v1.7zm-2-1.6a3.48 3.48 0 0 0-.4-2 1.53 1.53 0 0 0-1.2-.7 1.39 1.39 0 0 0-1.2.6 3.31 3.31 0 0 0-.4 1.9v1.8a3.16 3.16 0 0 0 .4 1.9 1.5 1.5 0 0 0 2.1.3 2.13 2.13 0 0 0 .3-.3 3.16 3.16 0 0 0 .4-1.9zM94.4 37.1h-.6a1.09 1.09 0 0 0-1.1.7v4.9h-1.9v-7.4h1.8l.1.8a1.39 1.39 0 0 1 1.3-.9.74.74 0 0 1 .5.1zM97.4 42.6h-1.9V32.1h1.9zM101.9 42.8a2.88 2.88 0 0 1-2.3-.9 3.31 3.31 0 0 1-.8-2.5v-.6a4.14 4.14 0 0 1 .8-2.7 2.72 2.72 0 0 1 2.2-1 2.59 2.59 0 0 1 2.1.9 4 4 0 0 1 .7 2.6v1h-3.8a1.44 1.44 0 0 0 .4 1.2 1 1 0 0 0 1 .4 1.86 1.86 0 0 0 1.6-.7l.8 1.2a2.69 2.69 0 0 1-1 .8 5.48 5.48 0 0 1-1.7.3zm-1.2-4.6h1.9V38a2.16 2.16 0 0 0-.2-1 1 1 0 0 0-1.4 0 2.11 2.11 0 0 0-.3 1.2zM107.9 39.4l1-4.2h2.1l-2.4 8.5c-.4 1.3-1.1 1.9-2.1 1.9a2.41 2.41 0 0 1-.8-.1V44h.2a1.32 1.32 0 0 0 .7-.2.61.61 0 0 0 .3-.6l.2-.5-2.1-7.5h2zM87.6 54h-3.1v2.6h3.7v1.7h-5.7v-10h5.7V50h-3.7v2.4h3.1zM91.1 50.9l.1.7a2 2 0 0 1 1.7-.9c1.3 0 1.9.9 2 2.7v4.9H93v-4.7a2 2 0 0 0-.2-.9.76.76 0 0 0-.7-.3.88.88 0 0 0-.8.5v5.4h-1.9v-7.4zM100.1 49.1v1.8h1v1.4h-1V56c0 .3 0 .5.1.6a.59.59 0 0 0 .5.2h.5v1.5a3.75 3.75 0 0 1-1.1.2c-1.3 0-1.9-.7-1.9-2.2v-3.9h-.9V51h.9v-1.8h1.9zM105.1 58.4a2.88 2.88 0 0 1-2.3-.9 3.14 3.14 0 0 1-.8-2.5v-.6a4.14 4.14 0 0 1 .8-2.7 2.72 2.72 0 0 1 2.2-1 2.59 2.59 0 0 1 2.1.9 4 4 0 0 1 .7 2.6v1H104a1.87 1.87 0 0 0 .4 1.2 1 1 0 0 0 1 .4 1.86 1.86 0 0 0 1.6-.7l.8 1.2a2.69 2.69 0 0 1-1 .8 4.91 4.91 0 0 1-1.7.3zm-1.2-4.5h1.9v-.2a2.16 2.16 0 0 0-.2-1 .86.86 0 0 0-.7-.4.67.67 0 0 0-.7.4 2 2 0 0 0-.3 1.2zM112.5 52.8h-.6a1.09 1.09 0 0 0-1.1.7v4.9h-1.9V51h1.8l.1.8a1.39 1.39 0 0 1 1.3-.9.74.74 0 0 1 .5.1zM119.3 54.8a5.17 5.17 0 0 1-.6 2.7 1.83 1.83 0 0 1-1.8.9 1.49 1.49 0 0 1-1.4-.7v3.4h-1.9V50.9h1.8l.1.7a1.91 1.91 0 0 1 1.5-.8 2 2 0 0 1 1.8.9 4.8 4.8 0 0 1 .6 2.6zm-2-.5a5.07 5.07 0 0 0-.2-1.5.88.88 0 0 0-.8-.5 1.05 1.05 0 0 0-.9.5v3.5a1.05 1.05 0 0 0 .9.5.88.88 0 0 0 .8-.5 3.08 3.08 0 0 0 .2-1.5zM124.1 52.8h-.6a1.09 1.09 0 0 0-1.1.7v4.9h-1.9V51h1.8l.1.8a1.39 1.39 0 0 1 1.3-.9.74.74 0 0 1 .5.1zM125.1 49a.76.76 0 0 1 .3-.7 1.22 1.22 0 0 1 1.6 0 1 1 0 0 1 0 1.37 1.22 1.22 0 0 1-1.6 0 .89.89 0 0 1-.3-.67zm2 9.3h-1.9v-7.4h1.9zM131.9 56.3c0-.2-.1-.3-.2-.5s-.5-.3-1-.6a4.25 4.25 0 0 1-1.6-1 2 2 0 0 1-.4-1.3 1.86 1.86 0 0 1 .7-1.6 2.9 2.9 0 0 1 1.9-.6 2.71 2.71 0 0 1 1.9.6 2.4 2.4 0 0 1 .7 1.7H132c0-.6-.3-.9-.8-.9a.67.67 0 0 0-.7.66.52.52 0 0 0 .2.4 4.25 4.25 0 0 0 1 .5 4.38 4.38 0 0 1 1.7 1 2.19 2.19 0 0 1-.2 3 3.53 3.53 0 0 1-3.4.3 3 3 0 0 1-1-.9 2.63 2.63 0 0 1-.3-1.2h1.8a2 2 0 0 0 .2.8.89.89 0 0 0 .7.3.63.63 0 0 0 .7-.55.33.33 0 0 0 0-.14zM137.9 58.4a2.88 2.88 0 0 1-2.3-.9 3.31 3.31 0 0 1-.8-2.5v-.6a4.14 4.14 0 0 1 .8-2.7 2.72 2.72 0 0 1 2.2-1 2.59 2.59 0 0 1 2.1.9 4 4 0 0 1 .7 2.6v1h-3.8a1.44 1.44 0 0 0 .4 1.2 1 1 0 0 0 1 .4 1.86 1.86 0 0 0 1.6-.7l.8 1.2a2.77 2.77 0 0 1-1 .8 4.3 4.3 0 0 1-1.7.3zm-1.2-4.5h1.9v-.2a2.16 2.16 0 0 0-.2-1 .86.86 0 0 0-.7-.4.67.67 0 0 0-.7.4 2 2 0 0 0-.3 1.2zM144.9 56.3c0-.2-.1-.3-.2-.5s-.5-.3-1-.6a3.68 3.68 0 0 1-1.6-1 2 2 0 0 1-.4-1.3 1.86 1.86 0 0 1 .7-1.6 2.9 2.9 0 0 1 1.9-.6 3.17 3.17 0 0 1 2 .6 2 2 0 0 1 .7 1.7h-1.9c0-.6-.3-.9-.8-.9a.67.67 0 0 0-.7.66.52.52 0 0 0 .2.4 9.33 9.33 0 0 0 1 .5 4.38 4.38 0 0 1 1.7 1 2.19 2.19 0 0 1-.2 3 3.53 3.53 0 0 1-3.4.3 3 3 0 0 1-1-.9 2.63 2.63 0 0 1-.3-1.2h1.8a2 2 0 0 0 .2.8.89.89 0 0 0 .7.3c.4 0 .6-.2.6-.7z"/>
    <path fill="#343434" d="M45.5 44.2a4.14 4.14 0 0 1-.8 2.7 2.92 2.92 0 0 1-4.12.28 3.7 3.7 0 0 1-.28-.28 4 4 0 0 1-.8-2.7v-2a4.65 4.65 0 0 1 .8-2.8 2.92 2.92 0 0 1 4.4 0 4.65 4.65 0 0 1 .8 2.8zm-.7-2a3.68 3.68 0 0 0-.6-2.3 2.19 2.19 0 0 0-3.08-.31l-.21.2a3.79 3.79 0 0 0-.6 2.2v2a3.68 3.68 0 0 0 .6 2.3 2.21 2.21 0 0 0 3.11.29 2 2 0 0 0 .29-.29 3.68 3.68 0 0 0 .6-2.3V42.2zM52.3 43.9h-2.1v3.8h-.7v-9.2H52a2.32 2.32 0 0 1 1.9.7 2.59 2.59 0 0 1 .7 2 3 3 0 0 1-.4 1.6 1.86 1.86 0 0 1-1.1.9l1.9 3.9v.1h-.8zm-2.2-.6H52a1.64 1.64 0 0 0 1.3-.6 2.16 2.16 0 0 0 .5-1.4 2.46 2.46 0 0 0-.5-1.5 2 2 0 0 0-1.4-.5h-1.8z"/>
</svg>
