<svg xmlns="http://www.w3.org/2000/svg" width="170" height="82" viewBox="0 0 170 82">
    <path fill="none" stroke="#474747" stroke-width="2" d="M134 33.43h6l.1 26H31v-26h7"/>
    <path fill="#474747" d="M53.3 37a1.18 1.18 0 0 0-.3-.9 2.76 2.76 0 0 0-.8-.6 4.4 4.4 0 0 0-1.1-.4c-.4-.1-.8-.2-1.3-.3a12.3 12.3 0 0 1-1.7-.5 6.79 6.79 0 0 1-1.4-.7 4 4 0 0 1-1-1.2 4.86 4.86 0 0 1-.4-1.8 4.6 4.6 0 0 1 .4-2.1 4.2 4.2 0 0 1 1.1-1.5 4.5 4.5 0 0 1 1.7-.9 9.19 9.19 0 0 1 2.4-.1 17.52 17.52 0 0 1 2.4.2 9.68 9.68 0 0 1 2.1.6v2.4c-.8-.3-1.5-.5-2.2-.7a14.9 14.9 0 0 0-2-.21 4.15 4.15 0 0 0-2.1.5 1.58 1.58 0 0 0-.7 1.51 2 2 0 0 0 .2.9 1.93 1.93 0 0 0 .7.6 3.33 3.33 0 0 0 1 .4l1.1.3a10.22 10.22 0 0 1 1.8.5 4.9 4.9 0 0 1 1.5.7 3.25 3.25 0 0 1 1.1 1.2 3.79 3.79 0 0 1 .4 1.9 3.65 3.65 0 0 1-.5 2.09 3.7 3.7 0 0 1-1.3 1.5 5.1 5.1 0 0 1-2 .9 9.89 9.89 0 0 1-2.6.3 17.52 17.52 0 0 1-2.4-.2 5.09 5.09 0 0 1-2-.7v-2.3a9 9 0 0 0 2.2.7 7.4 7.4 0 0 0 2.2.2 5.15 5.15 0 0 0 1.3-.1 3.31 3.31 0 0 0 1.1-.4 2.44 2.44 0 0 0 .8-.7 2 2 0 0 0 .3-1.09zM67.2 35.53h-1.4v5.89H63v-15h4.3a10 10 0 0 1 1.9.1l1.5.3a4.92 4.92 0 0 1 2.4 1.49 3.38 3.38 0 0 1 .9 2.51 4.49 4.49 0 0 1-.5 2 3.77 3.77 0 0 1-1.3 1.5 6.4 6.4 0 0 1-2.1.89 12.27 12.27 0 0 1-2.9.32zm-1.4-2.41a1.38 1.38 0 0 1 .6.1h.8a10.06 10.06 0 0 0 1.9-.22 3.44 3.44 0 0 0 1.2-.5 2.87 2.87 0 0 0 .7-.81 3.12 3.12 0 0 0 .2-1 2.12 2.12 0 0 0-.3-1.1 2 2 0 0 0-1.1-.8 3.12 3.12 0 0 0-1-.2c-.4 0-.9-.09-1.4-.09h-1.5zM87.6 37.53H82l-1.5 3.8h-2.9l6-15H86l6 15h-2.9zm-2.8-7.6c-.5 1.6-1 2.9-1.4 3.9l-.5 1.3h3.9l-.5-1.3a27.06 27.06 0 0 1-1.5-3.9zM109.2 30.83a4.25 4.25 0 0 1-.9 2.7 5.17 5.17 0 0 1-2.7 1.6l4.5 6.2h-3.3l-4.1-5.8h-1.9v5.8H98v-15h4.6a12.31 12.31 0 0 1 2.1.1 7.65 7.65 0 0 1 1.7.4 3.45 3.45 0 0 1 2 1.49 4.19 4.19 0 0 1 .8 2.51zm-7.1 2.39a7.14 7.14 0 0 0 1.6-.1 6.84 6.84 0 0 0 1.1-.19c.6-.31 1-.5 1.2-.9a2.86 2.86 0 0 0 .3-1.31 2.12 2.12 0 0 0-.3-1.1 1.69 1.69 0 0 0-.9-.7c-.3-.1-.6-.2-1-.3a6.28 6.28 0 0 0-1.5-.09h-2v4.59zM116.4 41.33v-15h2.8v6.79l5.7-6.79h3.4l-6.3 7.39 6.8 7.6h-3.5l-6.1-6.79v6.8z"/>
    <path fill="#959595" d="M60.8 50.63H60v-3.9h-1.5V46h3.8v.7h-1.5zM64.8 49.92H67v.71h-3.1V46h3v.7h-2.1v1.2h1.8v.7h-1.8zM71.1 46.63a1.12 1.12 0 0 0-.6.1 1.71 1.71 0 0 0-.5.3.77.77 0 0 0-.3.5c0 .2-.1.39-.1.7a1.51 1.51 0 0 0 .1.7 2.55 2.55 0 0 0 .3.5 2.29 2.29 0 0 0 .5.3 1.66 1.66 0 0 0 .7.1h.5c.2 0 .3-.1.5-.1v.7a1 1 0 0 1-.5.1h-.6a3.12 3.12 0 0 1-1-.2 1.84 1.84 0 0 1-.7-.5 1.64 1.64 0 0 1-.4-.7 3.09 3.09 0 0 1-.2-.9 1.65 1.65 0 0 1 .2-1 2.1 2.1 0 0 1 1.3-1.3 2.66 2.66 0 0 1 1-.2h.5c.2 0 .3.1.5.1v.7a.8.8 0 0 0-.5-.1.79.79 0 0 1-.7.2zM74.8 47.92h2.1V46h.8v4.6h-.8v-2h-2.1v2H74V46h.8zM82.2 48.23c.3.5.6.9.8 1.2V46h.8v4.6h-.9l-1.5-2.1a13.33 13.33 0 0 1-.8-1.3v3.4h-.8V46h.9zM90.1 48.32a3.12 3.12 0 0 1-.2 1 2.86 2.86 0 0 1-.4.8 1.15 1.15 0 0 1-.7.5 2.56 2.56 0 0 1-.9.2 2.66 2.66 0 0 1-1-.2 1.65 1.65 0 0 1-.7-.5 2 2 0 0 1-.4-.8 2.57 2.57 0 0 1 0-2 2.94 2.94 0 0 1 .4-.79 1.15 1.15 0 0 1 .7-.5 2.89 2.89 0 0 1 1-.21 2 2 0 0 1 .9.21 1.65 1.65 0 0 1 .7.5 2 2 0 0 1 .4.79 3.78 3.78 0 0 1 .2 1zm-.8 0a1.51 1.51 0 0 0-.1-.7 2.55 2.55 0 0 0-.3-.5c-.1-.1-.3-.2-.4-.3a1 1 0 0 0-.5-.1 1.38 1.38 0 0 0-.6.1 1.68 1.68 0 0 0-.4.3 2.55 2.55 0 0 0-.3.5 1.51 1.51 0 0 0-.1.7 1.57 1.57 0 0 0 .1.71 2.55 2.55 0 0 0 .3.5c.1.1.3.2.4.29a1.18 1.18 0 0 0 .6.1.68.68 0 0 0 .5-.1 1.28 1.28 0 0 0 .4-.29 2.55 2.55 0 0 0 .3-.5c0-.21.1-.4.1-.71zM92.8 46v3.89H95v.71h-3V46zM100.7 48.32a3.12 3.12 0 0 1-.2 1 2.86 2.86 0 0 1-.4.8 1.15 1.15 0 0 1-.7.5 2.56 2.56 0 0 1-.9.2 2.15 2.15 0 0 1-.9-.2 1.65 1.65 0 0 1-.7-.5 2 2 0 0 1-.4-.8 2.57 2.57 0 0 1 0-2 2.94 2.94 0 0 1 .4-.79 1.65 1.65 0 0 1 .7-.5 2.81 2.81 0 0 1 .9-.21 2.33 2.33 0 0 1 .9.21 1.65 1.65 0 0 1 .7.5 2 2 0 0 1 .4.79 3.78 3.78 0 0 1 .2 1zm-.8 0a1.51 1.51 0 0 0-.1-.7 2.55 2.55 0 0 0-.3-.5c-.1-.1-.3-.2-.4-.3a1.89 1.89 0 0 0-1.2 0 1.68 1.68 0 0 0-.4.3 2.55 2.55 0 0 0-.3.5 1.51 1.51 0 0 0-.1.7 1.57 1.57 0 0 0 .1.71 2.55 2.55 0 0 0 .3.5c.1.1.3.2.4.29a1.77 1.77 0 0 0 1.2 0 1.28 1.28 0 0 0 .4-.29 2.55 2.55 0 0 0 .3-.5c0-.21.1-.4.1-.71zM105.4 48.92h-1v-.7h1.9v2.3c-.1 0-.2.1-.3.1s-.2.1-.4.1a.7.7 0 0 0-.4.1h-.4a3.15 3.15 0 0 1-1.1-.2 2 2 0 0 1-.8-.5 1.74 1.74 0 0 1-.5-.7 2.74 2.74 0 0 1-.1-.9 1.66 1.66 0 0 1 .1-.7c.1-.2.1-.4.2-.6a3 3 0 0 1 .9-.9 1.58 1.58 0 0 1 .6-.2 1.83 1.83 0 0 1 .7-.1h.7l.5.1v.7a1.24 1.24 0 0 0-.5-.1h-.6a1.66 1.66 0 0 0-.7.1l-.6.3a1 1 0 0 0-.4.5 1.66 1.66 0 0 0-.1.7 1.41 1.41 0 0 0 1.19 1.6 1.34 1.34 0 0 0 .4 0h.6l.1-1zM110 48l1.2-2h.9l-1.7 2.7v1.8h-.8v-1.8l-1.8-2.7h.9z"/>
</svg>
