<svg xmlns="http://www.w3.org/2000/svg" width="1920" height="670" viewBox="0 0 1920 670">
    <linearGradient id="a" x1="1310.57" x2="1435.49" y1="198.14" y2="1299.44" gradientUnits="userSpaceOnUse">
        <stop offset="0" stop-color="#f6f6f6"/>
        <stop offset="1" stop-color="#f6f6f6" stop-opacity=".43"/>
    </linearGradient>
    <path fill="url(#a)" d="M1920 0v664h-892c-183.36 0-332-148.64-332-332A332 332 0 0 1 1028 0z"/>
    <path fill="#fff" d="M1463 601.85a31.9 31.9 0 0 0-32 31.83V664h64v-30.15a32 32 0 0 0-32-32zm-309.4-111c-74.42 0-135.13 60.7-135.13 135.13v37.88c3.16.1 6.34.14 9.53.14h54.47v-38a71.13 71.13 0 0 1 142.26 0v38h64v-38c0-74.45-60.73-135.15-135.13-135.15zm309.56 0h-.16c-74.43 0-135.13 60.7-135.13 135.13v38h64V626a71.32 71.32 0 0 1 71.13-71.15 31.93 31.93 0 0 0 32-31.85v-.16a31.92 31.92 0 0 0-31.84-31.99zm-308.28 104.77h-.16a31.93 31.93 0 0 0-31.84 32V664h64v-36.54a31.92 31.92 0 0 0-32-31.84zm-206.27 0h-.16a31.93 31.93 0 0 0-31.84 32v17.23a330 330 0 0 0 64 15.79v-33a32 32 0 0 0-32-32.02z"/>
</svg>
