<svg xmlns="http://www.w3.org/2000/svg" width="170" height="82" viewBox="0 0 170 82">
    <path fill="#474747" d="M26.2 28.2h5l-11.6 14 12.5 15.1h-5l-9.9-12.1-10 12.1H2l12.5-15.1-11.6-14H8l9.2 11.1c-.1 0 9-11.1 9-11.1zm9.2 0h4.2v29.2h-4.2zm15.7 0h4.2v29.2h-4.2zm25-.4a15.64 15.64 0 0 1 11.3 4.3 14.2 14.2 0 0 1 4.5 10.7 14.06 14.06 0 0 1-4.5 10.7A16 16 0 0 1 76 57.7a15.24 15.24 0 0 1-11-4.2 14.12 14.12 0 0 1-4.4-10.6A14.42 14.42 0 0 1 65 32.1c2.8-2.9 6.6-4.3 11.1-4.3zm.1 3.9a11.16 11.16 0 0 0-8.2 3.1 10.94 10.94 0 0 0-3.2 8 10.5 10.5 0 0 0 3.2 7.8 11.27 11.27 0 0 0 8.1 3.1 11 11 0 0 0 8.1-3.2 10.67 10.67 0 0 0 3.3-8 10.37 10.37 0 0 0-3.3-7.8 11.63 11.63 0 0 0-8-3z"/>
    <path d="M108.9 27h1.2l-2.8 3.4 3 3.6h-1.2l-2.4-2.9-2.3 2.9h-1.2l3-3.6-2.8-3.4h1.2l2.2 2.7zm1.6 0h5.8v.9h-2.4V34h-1v-6.1h-2.4zm6.8 7v-7h1.7a2.85 2.85 0 0 1 1.7.5 1.86 1.86 0 0 1 .6 1.4 1.5 1.5 0 0 1-.3 1 2.14 2.14 0 0 1-.9.7 3.36 3.36 0 0 1 .7.6c.2.3.5.7.9 1.3a3.37 3.37 0 0 0 .6.9l.4.5h-1.2l-.3-.5-.1-.1-.2-.3-.3-.5-.3-.5a5 5 0 0 0-.6-.7 1.76 1.76 0 0 0-.5-.4c-.1.1-.3.1-.6.1h-.3v3zm1.3-6.1h-.3v2.2h.4a2.25 2.25 0 0 0 1-.1.78.78 0 0 0 .4-.4 1 1 0 0 0 0-1.2 1 1 0 0 0-.5-.4 2.59 2.59 0 0 0-1-.1zM125.7 27h.7l3.1 7h-1l-.9-2.1h-3l-.9 2.1h-1zm1.4 4.1l-1.1-2.6-1 2.5h2.1zm-17.2 13.5v1.1a5.07 5.07 0 0 1-2.5.6 4.24 4.24 0 0 1-2-.5 3.25 3.25 0 0 1-1.3-1.3 3.47 3.47 0 0 1-.5-1.8 3.6 3.6 0 0 1 3.58-3.61h.22a6.07 6.07 0 0 1 2.4.6v1.1a4.45 4.45 0 0 0-2.4-.7 2.8 2.8 0 0 0-2 .8 2.66 2.66 0 0 0 0 3.76 2.72 2.72 0 0 0 2 .7 4.7 4.7 0 0 0 2.5-.75zm4.6-5.4a3.64 3.64 0 0 1 2.7 1 3.46 3.46 0 0 1 1.1 2.6 3.11 3.11 0 0 1-1.1 2.5 3.64 3.64 0 0 1-2.7 1 3.4 3.4 0 0 1-2.6-1 3.29 3.29 0 0 1-1-2.5 3.63 3.63 0 0 1 1.1-2.6 3.18 3.18 0 0 1 2.5-1zm.1.9a2.87 2.87 0 0 0-2 .7 2.66 2.66 0 0 0 0 3.76 2.61 2.61 0 0 0 1.9.7 2.69 2.69 0 0 0 1.9-4.6 3.14 3.14 0 0 0-1.8-.56zm10.4-.8h.9v7h-.9l-4.7-5.4v5.4h-.9v-7h.8l4.7 5.4zm4.2 4l-.8-.5a3 3 0 0 1-1-.9 1.68 1.68 0 0 1-.3-1 1.64 1.64 0 0 1 .6-1.3 2.46 2.46 0 0 1 1.5-.5 3 3 0 0 1 1.6.5v1.1a2.12 2.12 0 0 0-1.6-.7 2 2 0 0 0-.8.2.61.61 0 0 0-.3.6 1.42 1.42 0 0 0 .2.6 5 5 0 0 0 .7.6l.8.5a2.27 2.27 0 0 1 1.3 1.9 1.86 1.86 0 0 1-.6 1.4 2.46 2.46 0 0 1-1.5.5 3.32 3.32 0 0 1-1.9-.6v-1.3a2.29 2.29 0 0 0 1.9 1 1.12 1.12 0 0 0 .8-.3.89.89 0 0 0 .3-.7c0-.3-.3-.7-.9-1.1zm7.8-4h1v4a4 4 0 0 1-.1 1.2 4.34 4.34 0 0 1-.3.7c-.1.2-.3.3-.4.5a3.82 3.82 0 0 1-4.4 0 1 1 0 0 1-.4-.5 4.34 4.34 0 0 1-.3-.7 4 4 0 0 1-.1-1.2v-3.9h1v4a4.17 4.17 0 0 0 .2 1.4 1.05 1.05 0 0 0 .7.6 2.52 2.52 0 0 0 2.5-.3 2.17 2.17 0 0 0 .4-.6 3.47 3.47 0 0 0 .1-1.2zm2.4 0h1v6.1h3.1v.9h-4.1zm3.4 0h5.8v.9h-2.4v6.1h-1v-6.1h-2.4v-.9zm6.7 0h1v7h-1zm8.1 0h.9v7h-.9l-4.7-5.4v5.4h-.9v-7h.8l4.7 5.4c.1 0 .1-5.4.1-5.4zm6.2 3.5h2.3v2.9a6.15 6.15 0 0 1-2.6.6 3.71 3.71 0 0 1-2.8-1 3.29 3.29 0 0 1-1-2.5 3.6 3.6 0 0 1 3.58-3.61h.22a3.7 3.7 0 0 1 1.1.1 4 4 0 0 1 1.3.5v1a4.79 4.79 0 0 0-2.5-.7 2.56 2.56 0 0 0-1.9.8 2.78 2.78 0 0 0-.8 1.9 2.56 2.56 0 0 0 .8 1.9 2.8 2.8 0 0 0 2 .8 4 4 0 0 0 1.4-.3h.1V43.7h-1.3l.1-.9zm-57.5 15.7h-2.4v-7h1.8a3.84 3.84 0 0 1 1.3.2 2.24 2.24 0 0 1 .7.6 1.55 1.55 0 0 1-.8 2.4 2.29 2.29 0 0 1 1.2.6 1.6 1.6 0 0 1 .4 1.2 1.68 1.68 0 0 1-.3 1 1.81 1.81 0 0 1-.8.7 1.61 1.61 0 0 1-1.1.3zm-.6-6.1h-.9v2.1h.7a1.61 1.61 0 0 0 1.1-.3 1.12 1.12 0 0 0 .3-.8c.1-.7-.3-1-1.2-1zm.1 3h-.9v2.2h1a3.14 3.14 0 0 0 1.1-.1 1.07 1.07 0 0 0 .62-1.38 1.05 1.05 0 0 0-.62-.62 4 4 0 0 0-1.2-.1zm8.7-3.9h1v4a4 4 0 0 1-.1 1.2 4.34 4.34 0 0 1-.3.7c-.1.2-.3.3-.4.5a3.82 3.82 0 0 1-4.4 0 1 1 0 0 1-.4-.5 4.34 4.34 0 0 1-.3-.7 4 4 0 0 1-.1-1.2v-3.9h1v3.9a4.17 4.17 0 0 0 .2 1.4 1.05 1.05 0 0 0 .7.6 2.52 2.52 0 0 0 2.5-.3 2.17 2.17 0 0 0 .4-.6 3.47 3.47 0 0 0 .1-1.2l.1-3.9zm4.1 4.1l-.8-.5a3 3 0 0 1-1-.9 1.68 1.68 0 0 1-.3-1 1.64 1.64 0 0 1 .6-1.3 2.46 2.46 0 0 1 1.5-.5 3 3 0 0 1 1.6.5V53a2.12 2.12 0 0 0-1.6-.7 2 2 0 0 0-.8.2.61.61 0 0 0-.3.6 1.42 1.42 0 0 0 .2.6 5 5 0 0 0 .7.6l.8.5a2.19 2.19 0 0 1 1.3 1.9 1.86 1.86 0 0 1-.6 1.4 2.46 2.46 0 0 1-1.5.5 3.32 3.32 0 0 1-1.9-.6v-1.3a2.29 2.29 0 0 0 1.9 1 1.12 1.12 0 0 0 .8-.3.89.89 0 0 0 .3-.7 1.46 1.46 0 0 0-.9-1.1zm2.9-4.1h1v7h-1zm8.1 0h.9v7h-.9l-4.7-5.4v5.4h-.9v-7h.8l4.7 5.4zm2.4 0h3.9v.9H133v2.1h2.9v.9H133v2.2h3v.9h-4zm6.9 4.1l-.8-.5a3 3 0 0 1-1-.9 1.68 1.68 0 0 1-.3-1 1.64 1.64 0 0 1 .6-1.3 2.46 2.46 0 0 1 1.5-.5 2.94 2.94 0 0 1 1.6.5V53a2.12 2.12 0 0 0-1.6-.7 2 2 0 0 0-.8.2.71.71 0 0 0-.3.6 1.42 1.42 0 0 0 .2.6 5 5 0 0 0 .7.6l.8.5a2.19 2.19 0 0 1 1.3 1.9 1.86 1.86 0 0 1-.6 1.4 2.46 2.46 0 0 1-1.5.5 3.32 3.32 0 0 1-1.9-.6v-1.3a2.29 2.29 0 0 0 1.9 1 1.12 1.12 0 0 0 .8-.3.89.89 0 0 0 .3-.7 1.46 1.46 0 0 0-.9-1.1zm4.6 0l-.8-.5a3 3 0 0 1-1-.9 1.68 1.68 0 0 1-.3-1 1.64 1.64 0 0 1 .6-1.3 2.46 2.46 0 0 1 1.5-.5 2.94 2.94 0 0 1 1.6.5V53a2.12 2.12 0 0 0-1.6-.7 2 2 0 0 0-.8.2.71.71 0 0 0-.3.6 1.42 1.42 0 0 0 .2.6 5 5 0 0 0 .7.6l.8.5a2.4 2.4 0 0 1 1.3 1.9 1.86 1.86 0 0 1-.6 1.4 2.46 2.46 0 0 1-1.5.5 3.32 3.32 0 0 1-1.9-.6v-1.3a2.29 2.29 0 0 0 1.9 1 1.12 1.12 0 0 0 .8-.3.89.89 0 0 0 .3-.7c.1-.3-.2-.8-.9-1.1z" fill="#c6c6c5"/>
</svg>
