<svg xmlns="http://www.w3.org/2000/svg" width="170" height="82" viewBox="0 0 170 82">
    <path fill="#474747" d="M85.3 40.3h-3.7v-8.5h3.3a5.83 5.83 0 0 1 1.5.2 1.44 1.44 0 0 1 .9.6 2 2 0 0 1 .6 1.5 1.92 1.92 0 0 1-.6 1.5 1.21 1.21 0 0 1-.3.2c-.1 0-.2.1-.3.1a3.23 3.23 0 0 1 1.3.7 2.06 2.06 0 0 1 .5 1.3 2.41 2.41 0 0 1-.6 1.6 3.38 3.38 0 0 1-2.6.8zm-1.8-5h.9a3.78 3.78 0 0 0 1.2-.2.67.67 0 0 0 .4-.7c0-.4-.1-.6-.3-.7a2.89 2.89 0 0 0-1.2-.2h-.9a10.87 10.87 0 0 0-.1 1.8zm0 3.4h1.3a3.26 3.26 0 0 0 1.2-.2.89.89 0 0 0 .4-.8c0-.4-.1-.6-.4-.7a4.17 4.17 0 0 0-1.4-.2h-1.1zM97.8 34.7a2.39 2.39 0 0 1-1.6 2.6l2.1 3H96l-1.9-2.7h-1.3v2.7H91v-8.5h3.2a4.15 4.15 0 0 1 2.8.7 2.94 2.94 0 0 1 .8 2.2zm-2.2 1a1.34 1.34 0 0 0 .3-1c0-.5-.1-.8-.4-.9a2.06 2.06 0 0 0-1.3-.3h-1.4V36h1.4a2.44 2.44 0 0 0 1.4-.3zM106.8 40.3l-.8-1.8h-3.6l-.8 1.8h-2l3.7-8.5h1.8l3.7 8.5zm-2.6-5.9l-1.1 2.5h2.1zM117.2 33a4 4 0 0 1 1.2 3.1 4 4 0 0 1-1.2 3.1 4.89 4.89 0 0 1-3.6 1.2h-2.9v-8.5h3a5.1 5.1 0 0 1 3.5 1.1zm-1.4 5a2.33 2.33 0 0 0 .7-1.9 2.33 2.33 0 0 0-.7-1.9 3.27 3.27 0 0 0-2.1-.7h-1.1v5.1h1.2a2.44 2.44 0 0 0 2-.6zM121.1 40.3v-8.5h1.9v6.8h3.6v1.7zM135 31.9v1.7h-4.2v1.7h3.8v1.6h-3.8v1.8h4.3v1.7H129v-8.5zM141.5 40.3h-1.9V37l-2.9-5.1h2.1l1.8 3.1 1.8-3.1h2.1l-2.9 5.1zM82.2 49.6V52h-.9v-4.4h.9v.8a.9.9 0 0 1 .6-.6 1.5 1.5 0 0 1 .9-.2 1.34 1.34 0 0 1 1.4.9 1.93 1.93 0 0 1 1.6-.9 1.35 1.35 0 0 1 1.2.5 1.89 1.89 0 0 1 .5 1.3V52h-.9v-2.4c0-.8-.3-1.2-1-1.2a1.12 1.12 0 0 0-.8.3 1.27 1.27 0 0 0-.4.9V52h-.9v-2.4a2 2 0 0 0-.2-.9.89.89 0 0 0-.7-.3 1.12 1.12 0 0 0-.8.3.87.87 0 0 0-.5.9zM94.3 51.4a2.4 2.4 0 0 1-1.7.7 2.19 2.19 0 0 1-1.7-.7 2.35 2.35 0 0 1-.7-1.6 2 2 0 0 1 .7-1.6 2.4 2.4 0 0 1 1.7-.7 2.31 2.31 0 0 1 1.82 3.78zm-2.7-.6a1.46 1.46 0 0 0 2 0 1.37 1.37 0 0 0 .4-1.1 1 1 0 0 0-.4-1 1.81 1.81 0 0 0-1-.4 1.37 1.37 0 0 0-1.4 1.33v.07a1.37 1.37 0 0 0 .4 1.1zM97.9 48.3v2.3a.68.68 0 0 0 .67.7.87.87 0 0 0 .6-.3l.4.7a1.49 1.49 0 0 1-1.1.4A1.54 1.54 0 0 1 97 50.6v-2.2h-.6v-.8h.6v-1.4h.9v1.4h1.2v.8zM100.3 46.7a.6.6 0 0 1 .4-1 .52.52 0 0 1 .4.2.57.57 0 1 1-.73.87zm.9 5.3h-.9v-4.4h.9zM106.2 51.4a2.4 2.4 0 0 1-1.7.7 2.31 2.31 0 0 1-1.82-3.78l.12-.12a2.4 2.4 0 0 1 1.7-.7 2.19 2.19 0 0 1 1.7.7 2.35 2.35 0 0 1 .7 1.6 2 2 0 0 1-.7 1.6zm-2.6-.6a1.46 1.46 0 0 0 2 0 1.37 1.37 0 0 0 .4-1.1 1 1 0 0 0-.4-1 1.4 1.4 0 0 0-2.4 1 1.37 1.37 0 0 0 .4 1.1zM108.9 49.6V52h-.9v-4.4h.9v.8a1.17 1.17 0 0 1 .6-.6 1.5 1.5 0 0 1 .9-.2 1.35 1.35 0 0 1 1.2.5 1.89 1.89 0 0 1 .5 1.3V52h-.9v-2.4c0-.8-.3-1.2-1-1.2a1.12 1.12 0 0 0-.8.3.87.87 0 0 0-.5.9zM47.6 17L26 29.5v25L47.6 67l21.6-12.5v-25zm-8.7 28.3l10-12.5 5.8 17.5z"/>
</svg>
