<svg xmlns="http://www.w3.org/2000/svg" width="170" height="82" viewBox="0 0 170 82">
    <path fill="#474747" d="M54.72 34.27a8.89 8.89 0 0 1-3.8-4.1 21.65 21.65 0 0 1-1.6-5.6 23.26 23.26 0 0 0-.5-2.7c-.1-1-.1-2-.1-3.1a12.05 12.05 0 0 0 0-1.9 22.17 22.17 0 0 1 .3-4.3 20.09 20.09 0 0 1 1-3.4A5.23 5.23 0 0 1 51.62 7 7.6 7.6 0 0 0 53 6a4.5 4.5 0 0 1 3-.59c1.6 0 3.2 0 4.1 1.59a13.57 13.57 0 0 1 1.3 3.9 24.5 24.5 0 0 1 .3 8.1c-.1 1.3 0 2.71-.2 4-.1.5-.1 1.21-.2 1.8a.55.55 0 0 1-.1.4c-.3.9-.7 1.7-1 2.5 0 .1-.1.2-.1.3a5.27 5.27 0 0 0-.7 1.7v.2c-.2.6-.4 1.21-.6 1.9a2.26 2.26 0 0 0 1.8.9c6-1.2 9.3-10.7 9.8-10.8s.8-.1 1.2-.2v.6l-.6 1.5c-1.5 3.3-3.3 6.4-6.3 8.6a10.56 10.56 0 0 1-3.3 1.9 17.52 17.52 0 0 1-4 .8c-.2 0-.3.1-.5.3a10.73 10.73 0 0 1-3.1 3.3c-.6.4-1.2.9-1.9 1.3a9.18 9.18 0 0 1-3.6 1.4 12.24 12.24 0 0 0-1.8.2 5.18 5.18 0 0 1-2.2-.3c-.1 0-.1 0-.2-.09a12.5 12.5 0 0 1-4.3-3.91 18 18 0 0 1-1.4-3.4 46 46 0 0 1-1.3-5.2 15.16 15.16 0 0 1 .1-4.2c.1-.7.1-1.4.2-2 .2-1.3.4-2.7.7-4a32.66 32.66 0 0 1 .7-3.2 15.33 15.33 0 0 1 1.4-3.5c.1-.1.2-.3.3-.4a30 30 0 0 1 1.9-3.3A13.8 13.8 0 0 1 46.62 4 10.22 10.22 0 0 1 48 3.18c1-.5 1.9-1 2.9-1.5.4-.2.7-.4 1.1-.6a.78.78 0 0 1 .7 0 2.55 2.55 0 0 0 .5.3.37.37 0 0 1 .22.47c0 .09-.2.3-.4.4s-.7.3-1 .5a13 13 0 0 1-1.5 1 .21.21 0 0 0-.2.2c0 .1 0 .2-.1.2a3.28 3.28 0 0 0-1.1.9c-.2.2-.5.4-.6.6-.5.7-1 1.5-1.5 2.29 0 .1-.1.2-.2.31a1.92 1.92 0 0 0-.7 1.39c0 .11-.1.2-.1.3a5.08 5.08 0 0 0-.4 2.11c0 .2-.1.39-.1.6-.3.9-.6 1.9-.9 2.8a4.45 4.45 0 0 0-.2 1.1c-.5 2.3-.9 4.7-1.3 7a26.57 26.57 0 0 0-.3 6.3 10.58 10.58 0 0 0 1.4 5.2.33.33 0 0 1 .1.3 6.58 6.58 0 0 0 3.3 3.8 2.88 2.88 0 0 0 2.7-.21 10.26 10.26 0 0 0 2.3-1.9 22.78 22.78 0 0 0 2.1-2.5c.1-.1.1-.2.2-.3zM57 30a.7.7 0 0 0 .2-.5 24.67 24.67 0 0 0 .8-2.7c.4-1.2.7-2.4 1-3.6a12.94 12.94 0 0 0 .5-3.4 18.17 18.17 0 0 1 .2-2.2c0-.4.1-.8.1-1.2a27.57 27.57 0 0 0-.7-5.1 10 10 0 0 0-1-2.9 5.37 5.37 0 0 0-1-1.6c-2.5-2.1-3.2 3.5-3.3 4.9s0 2.7 0 4a51.55 51.55 0 0 0 .7 6.8 20.81 20.81 0 0 0 .3 2.5 22.28 22.28 0 0 0 .9 2.8c.1.3.2.5.3.8.2.5.5 1 .7 1.5z"/>
    <path fill="#474747" d="M84.62 27.08a48.82 48.82 0 0 0-.6 6.39 4.9 4.9 0 0 0 0 1.21.32.32 0 0 1-.1.29c0 .21 0 .21.2.41l.1-.1c.1-.1.1-.2.2-.3.5-.9 1.1-1.7 1.6-2.5a38.69 38.69 0 0 0 1.8-3.48l.9-1.5a11.94 11.94 0 0 0 .9-1.6c.3-.5.5-1 .8-1.4a3.39 3.39 0 0 0 .5-.89c.1-.3.3-.5.4-.8s.3-.5.4-.8.3-.2.6-.1c-.1.2-.1.4-.3.5a1.48 1.48 0 0 0-.2.9v.2a2.17 2.17 0 0 1-.3 1.1 9.69 9.69 0 0 1-.6 1.6c-.2.5-.5.9-.7 1.3-.7 1.2-1.3 2.5-1.9 3.7A25.67 25.67 0 0 1 86 35.27c-1 1.2-2.7 2.3-4.3 2a1.56 1.56 0 0 1-1.1-1c-.1-.4-.3-.7-.4-1.09a16 16 0 0 1-.3-3V31a28.26 28.26 0 0 1 .7-5 12.65 12.65 0 0 1 .4-2c.1-.89.3-1.79.4-2.6s.3-1.4.4-2a19.19 19.19 0 0 0 .3-2.4v-.19l-.6.3c-.1 0-.1.1-.2.2a2.29 2.29 0 0 0-.3.5c-.1.1-.1.2-.2.3-.7.39-1 1.39-1.5 2-.5.79-1.2 1.6-1.8 2.39s-1 1.61-1.4 2.4a12.88 12.88 0 0 0-1.1 2.28c-.3.29-.3.7-.5 1.1 0 .3-.2.5-.3.8s-.3.5-.2.79a.33.33 0 0 1-.1.3 7.18 7.18 0 0 1-.5 1c-.1.2-.2.2-.4.2a.46.46 0 0 0-.5.1.36.36 0 0 1-.2.11 1.41 1.41 0 0 0-.9.29 2.1 2.1 0 0 1-1.4 0c-.2 0-.3-.2-.4-.5a.74.74 0 0 0-.1-.5c0-.5-.1-.9-.1-1.29v-.8a19.76 19.76 0 0 1-.1-2.3V20l.3-3.69a17.81 17.81 0 0 1 .2-2.2 3 3 0 0 1 .2-.9.46.46 0 0 1 .5-.4 2.82 2.82 0 0 1 1.6.2.09.09 0 0 1 .1.1c.1.2.4.3.5.4a1.47 1.47 0 0 0 .2.6.11.11 0 0 0 .1.1.93.93 0 0 1 .6.9 5.13 5.13 0 0 0 .1 1.7 3 3 0 0 1 .3 1.4 9.81 9.81 0 0 1-.2 1.79 16.55 16.55 0 0 0-.2 2.11c0 .29.1.5.1.79a2.72 2.72 0 0 0 0 .9V26c.2 0 .2-.1.2-.2.4-.7.7-1.4 1-2l.3-.6.3-.6a5.49 5.49 0 0 1 .5-1 2.88 2.88 0 0 1 .3-.5l1.5-2.7c.3-.4.5-.9.9-1.4s.6-.9 1-1.4a5.5 5.5 0 0 1 1-1.1 3.45 3.45 0 0 1 2.3-.8h1.1a1.76 1.76 0 0 1 1 .3l.9.9c.1.2.3.4.2.5a2.35 2.35 0 0 0 .1.8 9.51 9.51 0 0 1 .2 3.4 5.18 5.18 0 0 1-.2 1.3 49.45 49.45 0 0 0-1.7 6.2z"/>
    <path fill="#474747" d="M102.22 22.37a5.75 5.75 0 0 1-.2.71 8.57 8.57 0 0 0-.6 1.39 1.46 1.46 0 0 1-.2.5 2.76 2.76 0 0 0-.4.71c-.1.1-.1.29-.2.5s-.3.5-.3.79a.85.85 0 0 0-.2.5 18.12 18.12 0 0 0-.8 2h-.1a3.34 3.34 0 0 1-.7 1 6.22 6.22 0 0 1-1.5 1.3 2.44 2.44 0 0 1-1 .6c-.1 0-.1 0-.2.1-.4.11-.8.11-1.1.21H94c-.4-.21-.9-.3-1.4-.5a3.26 3.26 0 0 1-1.4-1.4 7 7 0 0 1-.5-1.9 13.35 13.35 0 0 1 0-2v-2.3c0-1.3 0-2.5.1-3.8.1-.6.1-1.3.2-1.9a6.74 6.74 0 0 1 .3-1.9 7.07 7.07 0 0 0 .5-1.6c0-.2.2-.2.3-.2a1.52 1.52 0 0 1 1 .2.9.9 0 0 1 .5.4 2.88 2.88 0 0 0 .4.7.55.55 0 0 1 .1.4 5.41 5.41 0 0 0 .1 1.2 19.06 19.06 0 0 1 0 2.39V22a5.65 5.65 0 0 1 0 1.3 8.87 8.87 0 0 0-.1 1.7v.61c-.1 0-.1 0-.1.1a3.62 3.62 0 0 1-.1 1.5v.29a1.57 1.57 0 0 1 .1.71 2.72 2.72 0 0 0 0 .9 5.07 5.07 0 0 1 .1 1.29 3.13 3.13 0 0 0 .3 1c.1.1.1.1.2.1h.4c.4-.1.6-.39.9-.6a2.22 2.22 0 0 0 .5-.6 15.44 15.44 0 0 0 1.9-2.7c.2-.5.4-.8.6-1.3a4.28 4.28 0 0 0 .7-1.4 9.93 9.93 0 0 0 .8-1.9c0-.2.2-.39.3-.6.2-.4.6-.5 1.1-.5a.51.51 0 0 1 .42.47zM92 10.67c.1-.1.1-.1.2 0h.7a1.1 1.1 0 0 1 1.2.5 9 9 0 0 1-.4 1.61l-.4.39h-.1c-.3 0-.7.11-1-.2a2.66 2.66 0 0 1-.5-.6c-.2-.3-.4-.5-.3-.9v-.69c.32 0 .42-.11.6-.11zM40.22 48.27a5.85 5.85 0 0 1 1 1.7 9.78 9.78 0 0 0 .6 1.5 6.1 6.1 0 0 1 .4 1.3c.2.6.2 1.2.4 1.8A24.17 24.17 0 0 1 43 59v.3c.1.5.1 1 .2 1.6h.1a16.47 16.47 0 0 0 1.6-2.2c.2-.4.6-.7.8-1.1s.4-.9.7-1.3c.7-1.09 1.4-2.3 2.1-3.5l.6-.9a.29.29 0 0 1 .39-.11.23.23 0 0 1 .11.11c0 .1.1.2.1.3a.82.82 0 0 1-.3.6 11.9 11.9 0 0 0-.6 1.6c-.3.9-.6 1.7-.9 2.6a2.13 2.13 0 0 1-.6.9c-.9 1.4-1.8 2.8-2.8 4.2-.4.6-.9 1.1-1.3 1.6a.85.85 0 0 0-.2.5 6 6 0 0 1 .1 1.4c0 .6.1 1.3.1 1.9 0 1 0 2.1.1 3.2a6.46 6.46 0 0 1 0 2.4 12.85 12.85 0 0 1-1.6 6.1c-.2.2-.3.6-.5.8a5 5 0 0 1-.8.8 8.39 8.39 0 0 1-2.5 1.3 5.18 5.18 0 0 1-1.8.1 9.72 9.72 0 0 1-1.6-.2 5.24 5.24 0 0 1-2-1 2.3 2.3 0 0 1-.7-.69 3.2 3.2 0 0 1-.8-2.61 6.65 6.65 0 0 1 .8-2.7 12 12 0 0 1 1.7-2.19 7.16 7.16 0 0 0 1-1.4c.5-.6.9-1.31 1.4-1.91a6.18 6.18 0 0 1 1.6-1.5c.2-.09.3-.3.5-.5a6.78 6.78 0 0 1 .7-.9c.1-.1.2-.3.4-.4a.74.74 0 0 0 .3-.9 57.17 57.17 0 0 1-.5-5.7c0-.3-.1-.6-.1-.9v-3a8.6 8.6 0 0 0-.1-1.6c0-1.1-.1-2.2-.2-3.3a13.32 13.32 0 0 1 .4-2.8c0-.09 0-.09.1-.2l.1-.09c.52-.14.82.17 1.12.56zm-.8 19.61a31.79 31.79 0 0 1-2.7 3 14.43 14.43 0 0 0-1 1.3c-.3.5-.7.9-1 1.4a12.21 12.21 0 0 0-.6 1.2c-.3.69-.7 1.4-1 2.19a3.21 3.21 0 0 0-.2 1.91c0 .19.2.3.3.4a4.72 4.72 0 0 0 4.3.4c.4-.2.8-.4.9-.9a2.29 2.29 0 0 1 .3-.5 7 7 0 0 0 .9-3.1 17.52 17.52 0 0 0 .1-2.4V68a.35.35 0 0 1-.1-.19c-.1-.03-.2-.03-.2.07zm.3-26.8a.28.28 0 0 1 .4 0 1.52 1.52 0 0 1 1.07 1.86 1.38 1.38 0 0 1-.27.54l-.4.4a.57.57 0 0 1-.78.11l-.12-.11a2.17 2.17 0 0 1-.6-1.61 1.14 1.14 0 0 1 .7-1.19z"/>
    <path fill="#474747" d="M62.72 51.68a.73.73 0 0 1-.2.4 5.55 5.55 0 0 0-.8 1.5.35.35 0 0 0-.1.2c0 .5-.4.9-.5 1.4a4.65 4.65 0 0 0-.6 1.2c-1.3 1.7-1.9 3.8-3.7 5.2-1.4 1.1-2.8 2.5-4.7 2.5a15.39 15.39 0 0 1-2-.4.42.42 0 0 1-.2-.1 6 6 0 0 1-1.5-1.2 5.68 5.68 0 0 1-1-2.8 20.45 20.45 0 0 1 0-3.5 14.79 14.79 0 0 0 .1-2.2.94.94 0 0 1 .1-.5 15.17 15.17 0 0 0 .4-2.2 12.6 12.6 0 0 1 .9-2.7.8.8 0 0 1 .2-.4 2.06 2.06 0 0 0 .5-.9v-.1a4.5 4.5 0 0 1 1.1-1.7c.1-.1.2-.2.3-.2a7 7 0 0 1 2.4-.91 3.53 3.53 0 0 1 1.4-.2 2.38 2.38 0 0 1 .8.1h.3c2.9 0 1.8 5.4.3 6.6a3.87 3.87 0 0 0-.7.5c0 .1-.1.1-.2.1a3.73 3.73 0 0 1-.7.4 7.77 7.77 0 0 1-1.5.5c-.8.2-.8.1-.9.8 0 .2-.1.4-.1.6.1 2.3-1.1 6 .4 7.9a3 3 0 0 0 .9.7.64.64 0 0 0 .6 0 3.16 3.16 0 0 0 1.2-.6 18 18 0 0 1 1.5-1.1l.6-.6a12.21 12.21 0 0 0 1.4-2.29c.1-.21.2-.3.3-.5a21.1 21.1 0 0 0 1.7-2.8.72.72 0 0 0 .2-.41A14.44 14.44 0 0 1 62 52c.1-.2.2-.4.5-.4.02-.22.02-.13.22.08zm-6.5-6.21c0-.09 0-.2-.1-.2a2 2 0 0 0-1.6-.59c-.5.09-.9.29-1 .79a8.24 8.24 0 0 0-.5 1.6.94.94 0 0 1-.1.5 9.72 9.72 0 0 0-.3 1.5 3.15 3.15 0 0 1-.2 1.1 1.18 1.18 0 0 0-.1.8 5 5 0 0 0 2.1-.7 2.13 2.13 0 0 0 1-.9 13.77 13.77 0 0 0 1-1.7c0-.1.1-.2 0-.4a1.38 1.38 0 0 1 .1-.6 2.77 2.77 0 0 0 .1-.5 2.2 2.2 0 0 1-.4-.7z"/>
    <path fill="#474747" d="M64.62 63.07c.1-.7.1-1.4.2-2.1 0-.29.1-.5.1-.7a19.45 19.45 0 0 1 .6-2.7 9.49 9.49 0 0 0 .3-1.5v-.3a1.16 1.16 0 0 0-.8-1.3c-.5-.29-1.2-.5-1.8-.79s-1.2-.71-1.8-1.1a4.84 4.84 0 0 1-2-2.6 1.69 1.69 0 0 0-.2-.8 12.19 12.19 0 0 1 0-2.7 7 7 0 0 1 .5-1.5l.3-.6a1.64 1.64 0 0 0 .2-.5c.1-.4.4-.5.6-.9a1.27 1.27 0 0 0 .3-.4 2.58 2.58 0 0 1 .6-.5 3.62 3.62 0 0 1 1.5-.1c.5 0 .9.2 1.3.2a.82.82 0 0 1 .6.3c.1.2.3.3.4.4a1.1 1.1 0 0 1 .5.5.64.64 0 0 1 .1.6 1 1 0 0 0 .1.5.43.43 0 0 1-.1.5 3.16 3.16 0 0 1-.1.5 1.47 1.47 0 0 1-.2.6c-.1.3-.3.6-.4.9a3.62 3.62 0 0 1-.5.9 4.36 4.36 0 0 1-1.2 1.5l-.3.3c-.1.1-.1.2 0 .4a4.34 4.34 0 0 0 1.8 1.7 14.81 14.81 0 0 0 1.7.7 5.56 5.56 0 0 1 1.4.7c.3.2.7.4.8.8s.4.6.3.9c-.1.1 0 .1 0 .2a2.23 2.23 0 0 1 0 1.4c.1.4-.2.8-.2 1.2 0 .2-.3.6-.3.9a3.94 3.94 0 0 1-.2 1l-.3 2.1a10.11 10.11 0 0 0-.2 2.4v1.1l.3 1.1A5.78 5.78 0 0 0 69 68c.3.6.9 1.31 1.6 1a4.16 4.16 0 0 0 .7-.69c.1-.1.1-.2.2-.31a9.59 9.59 0 0 1 .7-1.3.57.57 0 0 1 .1-.3l.9-2.1a.42.42 0 0 1 .1-.3c.2-.7.5-1.3.7-2a14.61 14.61 0 0 1 .5-1.4c.1-.4.2-.6.3-1 .2-.6.4-1.2.6-1.9l.3-1.6a2.51 2.51 0 0 0 .2-.9 2.51 2.51 0 0 0 .2-.9c.3-.8.5-1.6.8-2.3.15-.34.32-.67.5-1s.5-.1.6 0v.1a2.15 2.15 0 0 0 0 .8c0 .1 0 .4-.1.5v.2c0 .5-.2.9-.2 1.3a4 4 0 0 1-.3.7c-.2.9-.6 1.7-.8 2.6-.1.6-1.5 4.6-2.1 6.1-.2.5-.3 1-.5 1.4a1 1 0 0 1-.3.6c-.3.6-.5 1.2-.8 1.7 0 .2-.1.3-.2.5l-.2.4a3.64 3.64 0 0 1-.6.7 5.9 5.9 0 0 0-.7.8 1.68 1.68 0 0 0-.4.3 4.34 4.34 0 0 1-.7.3.7.7 0 0 1-.5.2c-.1.1-.2.1-.3.2a.94.94 0 0 1-1 .3 1.42 1.42 0 0 1-.7-.1 2.81 2.81 0 0 1-1-.3 3.67 3.67 0 0 1-2-2.5 14.75 14.75 0 0 1-.3-1.9 6.23 6.23 0 0 1-.1-1.3c.4-.3.3-1 .4-1.5zM64 48.38a2.55 2.55 0 0 1 .4-.7 8.48 8.48 0 0 0 .5-1 1.47 1.47 0 0 0 .2-.6 13.3 13.3 0 0 1 .2-1.9.33.33 0 0 0-.1-.3 1.55 1.55 0 0 0-1-.8h-.1a.1.1 0 0 0-.1.1c0 .2-.2.29-.3.5a1.38 1.38 0 0 0-.2.59.74.74 0 0 1-.1.41 3.7 3.7 0 0 0-.4 1.79v1.8a5.38 5.38 0 0 0 .2 1.2 10.91 10.91 0 0 1 .8-1.09z"/>
    <path fill="#474747" d="M87.62 51.18a6.13 6.13 0 0 1-.2.7 8 8 0 0 0-.5 1.4 1.64 1.64 0 0 1-.2.5 2.55 2.55 0 0 0-.4.7c-.1.1-.1.3-.2.5s-.3.5-.3.8c0 .1-.2.3-.2.5a13.61 13.61 0 0 0-.7 2.1l-.1.09c-.2.41-.4.71-.6 1.1a6.44 6.44 0 0 1-1.5 1.4 5.48 5.48 0 0 1-1 .71.33.33 0 0 0-.2.09c-.4.1-.8.2-1.1.3a.78.78 0 0 1-.7 0c-.5-.2-1-.2-1.4-.4a2.58 2.58 0 0 1-1.4-1.3 6.83 6.83 0 0 1-.5-1.9 14.81 14.81 0 0 1-.1-2c-.1-.7 0-1.5-.1-2.3a24.1 24.1 0 0 1 0-3.8c.1-.6.1-1.3.2-1.9a13.61 13.61 0 0 1 .2-1.9c.2-.6.3-1.1.5-1.6 0-.2.2-.2.3-.2a1.65 1.65 0 0 1 1 .2 2.29 2.29 0 0 1 .5.3 2.55 2.55 0 0 0 .4.7.8.8 0 0 0 .2.4c.1.4.1.8.2 1.2.1.8 0 1.6.1 2.3a1.39 1.39 0 0 1 0 .9v.5a2.85 2.85 0 0 1 0 1.3 8.87 8.87 0 0 0-.1 1.7v.6a.09.09 0 0 1-.1.1 7.52 7.52 0 0 1 0 1.5v.3a1.12 1.12 0 0 1 .1.8 2.72 2.72 0 0 0 0 .9 2.74 2.74 0 0 1 .1 1.3c.1.4.2.7.3 1 0 .1.1.1.2.1a.94.94 0 0 0 .5-.1c.4-.1.6-.4.9-.7a2.22 2.22 0 0 0 .5-.6 20.44 20.44 0 0 0 1.8-2.7c.2-.5.4-.8.6-1.3a4.28 4.28 0 0 0 .7-1.4 9.93 9.93 0 0 0 .8-1.9c0-.2.2-.4.3-.6.2-.4.6-.5 1.1-.6 0-.2.1.03.1.21zM77 39.77c.1 0 .1-.09.2 0h.7a1.1 1.1 0 0 1 1.2.5l-.3 1.6a2.74 2.74 0 0 0-.4.5h-.1c-.3 0-.7.1-1-.2s-.4-.3-.5-.6-.4-.5-.3-.9c0-.2-.1-.5 0-.7a.85.85 0 0 1 .5-.2z"/>
    <path fill="#474747" d="M85.82 54.18a3.1 3.1 0 0 0 .1-1 8.28 8.28 0 0 1 .1-1.5c.1-1.1.4-2.1.5-3.21 0-.09 0-.09.1-.2a4.74 4.74 0 0 1 .5-1.5c.2-.59.5-1.09.7-1.59s.38-.82.6-1.21a.42.42 0 0 1 .1-.2 2.88 2.88 0 0 1 1.1-1.09 12.51 12.51 0 0 1 1.7-.8c.3-.1.6-.2 1-.3s.7-.1 1-.2a1 1 0 0 1 .5-.1 4.42 4.42 0 0 1 2.6.5c.1 0 .3.2.4.3a.48.48 0 0 1 .2.4.85.85 0 0 0 .2.5 1 1 0 0 1 .2.9v.2a3.37 3.37 0 0 1-.3 1.2 1.17 1.17 0 0 1-1.2.5c-.1 0-.2-.1-.1-.2a3 3 0 0 1 .1-.9 1.56 1.56 0 0 0-.1-1 .48.48 0 0 0-.2-.4 3.73 3.73 0 0 0-.7-.4c-.3-.1-.5-.3-.8-.3a.42.42 0 0 0-.5 0 4.43 4.43 0 0 1-.7.5l-.3.3a3.92 3.92 0 0 1-.8 1.4 2.32 2.32 0 0 0-.6 1.2c-.1.5-.3.9-.4 1.3 0 .1-.1.2-.1.3a11.38 11.38 0 0 1-.4 1.8 5.86 5.86 0 0 0-.3 1.2c0 .16-.07.33-.1.5a9.11 9.11 0 0 0-.3 1.3 6.06 6.06 0 0 1-.2 1.4v2.1a1.31 1.31 0 0 0 .1.59v.21c-.1.4.1.7.1 1.09v.5a4.14 4.14 0 0 0 .1 1l.3.6a6.5 6.5 0 0 1 .3.8 2.1 2.1 0 0 0 .4.6.73.73 0 0 0 .9.1c.1 0 .3-.1.4-.1a7.84 7.84 0 0 0 2.2-.9 2.34 2.34 0 0 0 .7-.8A12.4 12.4 0 0 1 96 58.38c.5-.5.9-1 1.4-1.5.7-.8 1.3-1.5 1.9-2.3a.1.1 0 0 1 .1-.1 8.49 8.49 0 0 0 1.6-2.21 1.71 1.71 0 0 0 .3-.5 4 4 0 0 1 .5-.8.83.83 0 0 1 .9-.4c.2 0 .3.2.3.4a1.45 1.45 0 0 1-.3.71 5.44 5.44 0 0 1-.7.9c-.1.1-.1.2-.3.3s-.4.4-.4.59a.35.35 0 0 1-.1.21c-.1.2-.3.4-.4.59.1.3-.2.41-.3.6a1.91 1.91 0 0 1-.5.8c0 .1-.1.1-.1.2a4.82 4.82 0 0 0-.8 1V57a13 13 0 0 1-1.6 1.8c-.1.2-.3.41-.4.6a6.54 6.54 0 0 1-1.7 1.7 11.15 11.15 0 0 1-2.7 1.5 19.45 19.45 0 0 1-2.4.7 2.11 2.11 0 0 1-.7-.09A1.39 1.39 0 0 0 89 63a5.79 5.79 0 0 1-1.3-.79c-.1-.1-.1-.21-.2-.3A3.73 3.73 0 0 1 86.42 60l-.3-.59a3.86 3.86 0 0 1-.2-1 16.41 16.41 0 0 1-.1-2.1 14.72 14.72 0 0 1 0-2.13z"/>
    <path fill="#474747" d="M109.12 52.57a1.84 1.84 0 0 1-.7 1.1c0 .1-.1.1-.1.2-.2.6-.6 1.1-.8 1.8a.77.77 0 0 1-.3.5 2 2 0 0 0-.4 1.3c0 .1 0 .1-.1.2a7.12 7.12 0 0 0-.4 2.5 5.91 5.91 0 0 1-.2 1.4 1.4 1.4 0 0 0 0 1.1c.1.2 0 .4 0 .7a12.65 12.65 0 0 0-.5 1.8c-.1.4-.3.7-.4 1.1 0 .1-.1.1-.2.1-.4 0-.6-.3-1-.3a1.68 1.68 0 0 0-.3.4.51.51 0 0 1-.4-.2.77.77 0 0 0-.6-.2.11.11 0 0 0-.1.1c-.3.1-.4 0-.5-.3a.1.1 0 0 0-.1-.1 7.41 7.41 0 0 0-.3-1.3l-.3-1.5a11.3 11.3 0 0 0-.2-2c0-.9-.2-1.79-.2-2.79a3 3 0 0 1 .1-1.3v-4.41a9.64 9.64 0 0 1 0-2.4c.1-.5.1-.9.2-1.4l.3-2.6c.1-.8.2-1.7.4-2.6a1.89 1.89 0 0 1 .1-.7q.24-1.22.6-2.4v-.2c.3-1.2.7-2.4 1-3.6.3-1 .6-1.9.9-2.8.2-.5.4-1 .6-1.4a2.48 2.48 0 0 1 .6-1.1 7.18 7.18 0 0 0 .5-1 3.17 3.17 0 0 1 .9-1.4c.3-.2.4-.6.6-.9a4.09 4.09 0 0 1 .7-1 6 6 0 0 1 3.4-1.29c.3 0 .5-.1.8-.1a3.6 3.6 0 0 1 1.5.1 7.85 7.85 0 0 1 2.6.79 4.62 4.62 0 0 1 1.3 1.11 3 3 0 0 1 .6 1.29c.1.1.1.21.2.4a1.76 1.76 0 0 1 .2.8c0 .2.1.3.1.5a1.55 1.55 0 0 1 .1.7c-.1.8 0 1.5-.1 2.3a17.36 17.36 0 0 1-.4 2.5c-.6 2.6-2.6 4.7-4.1 6.8a12.9 12.9 0 0 1-2.1 2.5c-.8.7-1.7 1.3-2.6 2-1.4 1.2-2.7 2.5-4.6 3-.7.2-.6.2-.7.9a4.24 4.24 0 0 0-.1 1V54a2.55 2.55 0 0 1-.1.91 10.82 10.82 0 0 0 0 1.8 4.82 4.82 0 0 0 0 1.2c.1.09.1.09.1.3.1-.1.1-.21.2-.3a24.6 24.6 0 0 1 1.3-2.8 9.07 9.07 0 0 1 .8-1.3l.6-.9a2.58 2.58 0 0 0 .5-.6 19.88 19.88 0 0 1 1.6-1.31 2.86 2.86 0 0 1 1.8-.4 1 1 0 0 1 .7.4 2 2 0 0 0 .4.5.91.91 0 0 1 .3.71 21 21 0 0 1 1.1 4.5c0 2.7-.7 5.4-.4 8.1l.3 2.3v.7a2 2 0 0 0 .6 1.4.57.57 0 0 0 .4.2 1.75 1.75 0 0 0 1-.41 3.91 3.91 0 0 0 .6-.69c.3-.5.6-.9.9-1.4a25 25 0 0 0 1.7-3.81c.1-.1.1-.3.2-.5a2.77 2.77 0 0 0 .1-.5c.4-1 .6-2 1-2.9a1.67 1.67 0 0 0 .2-.7 8.64 8.64 0 0 1 .5-1.4 15.16 15.16 0 0 0 1-3.1c.16-.84.36-1.67.6-2.5a6 6 0 0 1 .5-1.09 3.47 3.47 0 0 1 .5-.8.8.8 0 0 1 .8-.4 1 1 0 0 1 0 .9c0 .3-.2.5-.2.8a.77.77 0 0 0-.1.5c.1.09 0 .3 0 .4a11.34 11.34 0 0 1-.4 1.6q-.16.43-.3.9a19.93 19.93 0 0 0-1 4.2 22.48 22.48 0 0 1-2.1 6.2c-.8 1.6-1.4 3.7-2.9 4.7a4.91 4.91 0 0 1-1.6.8c-.1.1-.2.1-.4.2a1.41 1.41 0 0 1-.7.19c-.1 0-.2.1-.4.1a2.68 2.68 0 0 1-2.8-1.2 8.35 8.35 0 0 1-.7-1.59c-.3-1.41-.2-2.91-.5-4.41a10.08 10.08 0 0 1-.3-2.79c.1-2.3.5-4.5.5-6.91a13.35 13.35 0 0 0 0-2 .38.38 0 0 0-.2-.4 3.62 3.62 0 0 0-1.2 1.17zm-3.9-3.1a15.56 15.56 0 0 1 1.6-1.09c.8-.6 1.4-1.2 2.2-1.8a23.79 23.79 0 0 0 2.7-2.8c.1-.2.3-.4.4-.6.5-.6 1.1-1.2 1.6-1.7.1-.1.2-.3.3-.4a8.91 8.91 0 0 0 1-1.6 35.44 35.44 0 0 0 1.7-3.51c.1-.4.2-.7.3-1s.1-.59.1-.9a6.8 6.8 0 0 0 .1-1.5v-1.7c-.1-.1-.1-.2-.1-.4a2 2 0 0 0-.3-1.1c0-.1-.1-.2-.1-.29a2.85 2.85 0 0 0-.5-1 6.16 6.16 0 0 1-.4-.71 1.37 1.37 0 0 0-.6-.7c-.2-.1-.4-.1-.5-.3a1.5 1.5 0 0 0-1.1-.1 5.26 5.26 0 0 0-1.5.7l-.4.4c-.2.21-.3.5-.5.71s-.3.39-.3.6 0 .2-.1.2a16.14 16.14 0 0 0-.8 1.8c0 .1-.1.2-.1.4s-.1.2-.1.29a1.47 1.47 0 0 0-.2.6 4.22 4.22 0 0 1-.5 1.6c-.1.2-.1.4-.2.5-.2.5-.3 1.1-.5 1.7s-.3 1-.5 1.5a3.82 3.82 0 0 0-.3 1.1 10.78 10.78 0 0 1-.7 2 2.54 2.54 0 0 0-.2.8 7.64 7.64 0 0 1-.7 2.2 3.66 3.66 0 0 0-.3.9l-.3 1.41a1.76 1.76 0 0 1-.2.7 5 5 0 0 1-.3 1.2v.2a1.2 1.2 0 0 1-.2.8.64.64 0 0 0 0 .6c.28.4.4.4.5.29z"/>
    <path fill="#474747" d="M127.52 43.88c-.1.09-.2.2-.2.3a1.81 1.81 0 0 1-.4.59 3.73 3.73 0 0 1-.4.7 6.36 6.36 0 0 0-.4 1.21 23.07 23.07 0 0 1-.7 2.9c-.2.6-.3 1.3-.5 2a10.24 10.24 0 0 0-.6 1.9.3.3 0 0 1-.1.2 2.51 2.51 0 0 0-.3 1.7c.1.6.1 1.3.2 1.9a.58.58 0 0 0 .3.5c.2.2.4.3.6.5a.64.64 0 0 0 .7.1 5.3 5.3 0 0 0 2.1-1.1 7.16 7.16 0 0 0 1-.8c.2-.1.3-.3.5-.5a8.54 8.54 0 0 0 .9-1.2v-.1a3.15 3.15 0 0 1 .4-.8.39.39 0 0 1 .1-.3 2.3 2.3 0 0 1-.8-.5 9.06 9.06 0 0 1-2.1-1.7c-.2-.3-.5-.6-.7-.9a5.38 5.38 0 0 1-.5-3.5 7 7 0 0 1 .7-2v-.1c.4-.2.5-.6.9-.6l.5-.1a2.81 2.81 0 0 1 1.6.4c.7.3 1.5.6 1.8 1.3a5.17 5.17 0 0 1 .6 1.8c.06.23.12.47.2.7a5.2 5.2 0 0 1 .2 1.8c0 .5-.3.8-.4 1.2a3.34 3.34 0 0 0-.1 1c.1 0 .2.1.3.1.3 0 .6-.1.9-.1a9.5 9.5 0 0 0 4.8-2.8c.1-.1.2-.2.2-.3s.1-.2.2-.3.4-.1.5 0l.6.3a9 9 0 0 1-2.7 2.8c-.8.3-1.5.9-2.3 1.2a3.79 3.79 0 0 1-2.1.4c-.3-.1-.6.1-.9.1a1 1 0 0 0-.4.5 7.28 7.28 0 0 0-.5 1.3 17.82 17.82 0 0 1-1.3 1.6 10.3 10.3 0 0 1-.9 1.1 9.58 9.58 0 0 1-1.1.9c-.5.3-1 .8-1.7.7a7.1 7.1 0 0 1-2-.7 8 8 0 0 1-3.2-2.8 7.76 7.76 0 0 1-.6-2.1 21.57 21.57 0 0 1-.2-2.4 19.38 19.38 0 0 1 .4-2.3 17.83 17.83 0 0 1 1.2-3.2 2.45 2.45 0 0 1 .6-.91 4 4 0 0 0 .8-1.09c.3-.3.6-.5.9-.8.5-.4 1-.7 1.5-1.1a1.38 1.38 0 0 1 .7-.2 3.13 3.13 0 0 1 1.3.4c.3.7.2 1-.1 1.2zm4.1 7.59v-.29a2 2 0 0 0 .3-1.71 7.62 7.62 0 0 0-.4-2.2 3.47 3.47 0 0 1-.6-1.2c-.1 0-.1-.1-.2-.1a.23.23 0 0 0-.2.21 1.64 1.64 0 0 1-.2.5 8.28 8.28 0 0 0-.4 1.5.32.32 0 0 1-.1.29 2.08 2.08 0 0 0-.1 1.71 5.11 5.11 0 0 0 .9 1.59c.2.2.4.5.7.5.2-.27.4-.5.3-.8z"/>
</svg>
