<svg xmlns="http://www.w3.org/2000/svg" width="220" height="230" viewBox="0 0 220 230">
  <path fill="#6852ed" d="M92.58,3.36A71.59,71.59,0,0,0,10.9,109.43l2.4,33.67,37.86-2.66A71.6,71.6,0,0,0,92.58,3.36ZM69.8,96.7h-.2v-.1a4.42,4.42,0,0,1-3.2-1.4A4.5,4.5,0,0,1,65,92a4.69,4.69,0,0,1,4.6-4.6,4.51,4.51,0,0,1,3.3,1.4A4.42,4.42,0,0,1,74.3,92,4.6,4.6,0,0,1,69.8,96.7Zm17-35.4A14.06,14.06,0,0,1,84,65a42.41,42.41,0,0,1-4.2,3.6,31.12,31.12,0,0,0-5,4.8,8.3,8.3,0,0,0-1.7,5.3,2.8,2.8,0,0,1-1,2.1,3.55,3.55,0,0,1-2.4.9l.1.1a3.54,3.54,0,0,1-2.5-1,2.78,2.78,0,0,1-1-2,14.24,14.24,0,0,1,1.3-6.2,16.79,16.79,0,0,1,2.9-4.4,50.22,50.22,0,0,1,4.5-4,29.28,29.28,0,0,0,4.4-4,6,6,0,0,0,1.4-4q0-8.51-11.2-8.5a21.54,21.54,0,0,0-5.3.7,16.69,16.69,0,0,0-4.7,1.9,3.48,3.48,0,0,1-2,.6,3.26,3.26,0,0,1-3-3.1,3.4,3.4,0,0,1,2-3A23.12,23.12,0,0,1,63,42a29.39,29.39,0,0,1,7.3-.8q8,0,12.7,4a13.31,13.31,0,0,1,4.8,10.7A12.5,12.5,0,0,1,86.8,61.3Z"/>
  <path class="uk-preserve" fill="#fed100" d="M219.5,158.9a71.6,71.6,0,1,0-35.31,61.72l31.51-2.22-2.17-30.87A71.26,71.26,0,0,0,219.5,158.9Zm-75.6-26.4a4,4,0,0,1,1.2-2.9,3.89,3.89,0,0,1,3-1.1,3.8,3.8,0,0,1,2.7,1.1,4,4,0,0,1,1.2,3v7.6L150.5,166a2.35,2.35,0,0,1-.7,1.6,2.62,2.62,0,0,1-1.8.6,2.71,2.71,0,0,1-1.9-.6,2.35,2.35,0,0,1-.7-1.6l-1.5-25.8Zm4.3,51.1H148a4.79,4.79,0,0,1-4.6-4.7,4.69,4.69,0,0,1,4.6-4.6,4.51,4.51,0,0,1,3.3,1.4,4.42,4.42,0,0,1,1.4,3.2A4.6,4.6,0,0,1,148.2,183.6Z"/>
</svg>
